<svg width="50" height="50" viewBox="0 0 50 50" fill="none" xmlns="http://www.w3.org/2000/svg">
<path d="M10.4167 43.75C9.27084 43.75 8.28959 43.3417 7.47292 42.525C6.65625 41.7083 6.24861 40.7278 6.25 39.5833V10.4167C6.25 9.27084 6.65834 8.28959 7.475 7.47292C8.29167 6.65625 9.27223 6.24861 10.4167 6.25H39.5833C40.7292 6.25 41.7104 6.65834 42.5271 7.475C43.3438 8.29167 43.7514 9.27223 43.75 10.4167V39.5833C43.75 40.7292 43.3417 41.7104 42.525 42.5271C41.7083 43.3438 40.7278 43.7514 39.5833 43.75H10.4167ZM10.4167 39.5833H39.5833V10.4167H10.4167V39.5833ZM22.0833 32.8646C22.3611 32.8646 22.6215 32.8208 22.8646 32.7333C23.1076 32.6458 23.3333 32.4986 23.5417 32.2917L35.3646 20.4688C35.7465 20.0868 35.9375 19.6181 35.9375 19.0625C35.9375 18.5069 35.7292 18.0208 35.3125 17.6042C34.9306 17.2222 34.4444 17.0313 33.8542 17.0313C33.2639 17.0313 32.7778 17.2222 32.3958 17.6042L22.0833 27.9167L17.5521 23.3854C17.1701 23.0035 16.7014 22.8125 16.1458 22.8125C15.5903 22.8125 15.1042 23.0208 14.6875 23.4375C14.3056 23.8194 14.1146 24.3056 14.1146 24.8958C14.1146 25.4861 14.3056 25.9722 14.6875 26.3542L20.625 32.2917C20.8333 32.5 21.059 32.6472 21.3021 32.7333C21.5451 32.8194 21.8056 32.8632 22.0833 32.8646Z" fill="#33CAFF"/>
</svg>
