<svg width="13" height="26" viewBox="0 0 13 26" fill="white" xmlns="http://www.w3.org/2000/svg">
<path d="M12.2071 0.406474H8.53625C3.86107 0.35827 3.26395 3.33983 3.26395 6.56666V8.91305H1.20016C1.10688 8.90022 1.01198 8.90971 0.922838 8.94079C0.833696 8.97188 0.752707 9.02372 0.686163 9.09229C0.619618 9.16086 0.569309 9.24432 0.539143 9.33617C0.508977 9.42803 0.499766 9.52582 0.512226 9.62194V13.8752C0.499766 13.9713 0.508977 14.0691 0.539143 14.161C0.569309 14.2528 0.619618 14.3363 0.686163 14.4049C0.752707 14.4734 0.833696 14.5253 0.922838 14.5564C1.01198 14.5875 1.10688 14.5969 1.20016 14.5841H3.26395V25.2173C3.25249 25.3136 3.26253 25.4113 3.29332 25.503C3.32411 25.5947 3.37483 25.6779 3.4416 25.7463C3.50837 25.8147 3.58943 25.8665 3.67859 25.8977C3.76774 25.9288 3.86263 25.9386 3.95601 25.9262H8.15927C8.56515 25.9744 8.89398 25.6356 8.76464 25.2173L8.7674 14.5841H12.2071C12.3003 14.5969 12.3952 14.5875 12.4844 14.5564C12.5735 14.5253 12.6545 14.4734 12.721 14.4049C12.7876 14.3363 12.8379 14.2528 12.8681 14.161C12.8982 14.0691 12.9074 13.9713 12.895 13.8752V9.62194C12.9074 9.52582 12.8982 9.42803 12.8681 9.33617C12.8379 9.24432 12.7876 9.16086 12.721 9.09229C12.6545 9.02372 12.5735 8.97188 12.4844 8.94079C12.3952 8.90971 12.3003 8.90022 12.2071 8.91305H8.76327L8.7674 6.78641C8.90086 5.88046 8.90086 6.02791 9.71674 6.07753H12.1782C12.3694 6.03358 12.573 6.05768 12.7161 5.91449C12.8592 5.77129 12.9418 5.57564 12.8936 5.36865V1.11536C12.9063 1.01931 12.8973 0.921545 12.8673 0.829673C12.8373 0.737801 12.7872 0.654306 12.7207 0.585697C12.6543 0.517089 12.5733 0.465219 12.4842 0.434131C12.3951 0.403044 12.3003 0.393579 12.2071 0.406474ZM11.471 4.58037L9.74564 4.51232C7.60892 4.51232 7.43006 5.70749 7.43006 6.93102L7.42456 9.6191C7.42438 9.71864 7.44325 9.81724 7.48009 9.90926C7.51693 10.0013 7.57102 10.0849 7.63926 10.1554C7.7075 10.2258 7.78856 10.2817 7.87779 10.3198C7.96702 10.358 8.06267 10.3776 8.15927 10.3776H11.5191V13.1167H8.16202C7.96703 13.1167 7.78002 13.1964 7.64201 13.3384C7.50401 13.4803 7.4263 13.6729 7.42593 13.8738L7.42456 24.5085H4.63981V13.8752C4.63981 13.457 4.36326 13.1181 3.95601 13.1181H1.88809V10.379H3.95601C4.05255 10.3792 4.14817 10.3597 4.23741 10.3218C4.32664 10.2838 4.40775 10.2281 4.47608 10.1579C4.61367 10.0147 4.63844 9.82184 4.63844 9.62052V6.56524C4.63844 3.38661 5.2617 1.87244 8.53488 1.87244H11.4696L11.471 4.58037Z" fill="white"/>
</svg>
