<svg width="158" height="41" viewBox="0 0 158 41" fill="#fff" xmlns="http://www.w3.org/2000/svg">
<path d="M62.5773 14.1413V10H49V30.5594H53.708V22.6H61.3927V18.4587H53.708V14.1413H62.5773Z" fill="white"/>
<path d="M69.1825 10.0294H64.2619V14.4937H69.1825V10.0294ZM64.4441 30.5594H69.0307V16.9902H64.4441V30.5594Z" fill="white"/>
<path d="M81.1239 16.579H81.0328C78.8154 16.579 77.2056 17.5189 76.3855 19.751H76.3247V16.9902H71.8294V30.5594H76.4159V25.5664C76.4159 22.1007 77.6612 21.014 80.729 21.014H81.1239V16.579Z" fill="white"/>
<path d="M88.8928 16.579C84.5797 16.579 81.4815 19.2517 81.4815 23.8336C81.4815 28.151 84.61 31 89.3181 31C91.7176 31 93.6312 30.2951 95.1195 29.414L93.449 26.0657C92.5681 26.6238 91.0798 27.2993 89.3788 27.2993C87.4956 27.2993 86.0984 26.5357 85.7946 24.8322H95.8485V23.8336C95.8485 18.9287 93.1148 16.579 88.8928 16.579ZM88.7409 19.7217C90.2293 19.7217 91.3531 20.6322 91.4139 22.2182H85.825C86.0376 20.4559 87.1919 19.7217 88.7409 19.7217Z" fill="white"/>
<path d="M102.371 10H97.7846V30.5594H102.371V10Z" fill="white"/>
<path d="M109.939 10.0294H105.018V14.4937H109.939V10.0294ZM105.2 30.5594H109.787V16.9902H105.2V30.5594Z" fill="white"/>
<path d="M121.728 16.5497C119.754 16.5497 118.114 17.4601 117.142 19.0462H117.081V16.9902H112.585V30.5594H117.172V23.7455C117.172 21.3371 118.326 20.4559 119.875 20.4559C121.576 20.4559 122.457 21.3664 122.457 23.393V30.5594H127.013V22.1594C127.013 18.2825 124.826 16.5497 121.728 16.5497Z" fill="white"/>
<path d="M145.009 30.5594L138.54 23.158L144.098 16.9902H138.418L134.318 22.3357V10H129.731V30.5594H134.318V24.3329L139.086 30.5594H145.009Z" fill="white"/>
<path d="M151.804 31C155.54 31 158 29.649 158 26.4182C158 24.1273 156.724 23.0406 154.598 22.2769L152.168 21.3958C151.47 21.1315 151.105 20.9552 151.105 20.5441C151.105 20.1916 151.318 19.9566 152.229 19.9566C153.353 19.9566 154.902 20.3678 156.39 20.9552L157.666 17.372C155.874 16.814 154.173 16.5497 152.593 16.5497C148.554 16.5497 146.579 18.165 146.579 20.9552C146.579 22.9818 147.703 24.3035 150.012 25.1552L152.472 26.0951C152.897 26.2713 153.444 26.3594 153.444 26.8881C153.444 27.3287 152.988 27.5049 152.168 27.5049C150.437 27.5049 148.705 26.8 147.187 25.9483L145.455 29.5902C147.582 30.6182 149.951 31 151.804 31Z" fill="white"/>
<path fill-rule="evenodd" clip-rule="evenodd" d="M24.4188 31.3878C22.6827 32.595 20.5584 33.3239 18.2056 33.3239C12.4264 33.3239 7.69797 29.4972 7.69797 23.3017C7.69797 20.2039 9.63959 17.4706 13.5457 12.8239C14.1168 13.4617 21.4721 22.8689 21.4721 22.8689L26.1777 17.5161C26.5203 18.0628 26.8173 18.6094 27.0914 19.1106C29.2843 23.2789 28.3706 28.6317 24.3959 31.3878M25.9721 4.1C24.2817 5.64889 22.7741 7.28889 21.4492 8.90611C19.2563 5.89944 16.5381 2.84722 13.4772 0C5.59645 7.28889 0 16.81 0 22.55C0 32.7317 8.04061 41 18 41C27.9594 41 36 32.7317 36 22.55C36 18.2678 31.8198 9.47556 26.0178 4.1" fill="white"/>
</svg>
