<svg width="1440" height="1449" viewBox="0 0 1440 1449" fill="#1B5CBC" xmlns="http://www.w3.org/2000/svg">
<path d="M1639 350.786C1517.72 406.888 1415.81 421.353 1321.54 442.51C1248.38 458.927 1150.36 480.547 1056.63 533.302C1003.1 563.434 972.846 591.964 941.009 620.849C917.996 641.722 892.076 663.252 864.376 684.884C810.808 726.706 749.662 768.864 686.987 810.886C622.269 854.27 556.292 897.584 494.519 941.098C425.144 989.974 367.752 1038.78 281.954 1086.03C198.415 1132.04 109.93 1168.21 24.8855 1204.41C-81.712 1249.78 -182.399 1296.16 -281.934 1355.89L-281.705 1356.45C-182.432 1296.76 -82.1817 1250.61 24.1945 1205.56C108.744 1169.76 196.732 1134.08 279.941 1088.37C365.312 1041.49 422.427 992.785 492.701 944.203C554.98 901.147 621.903 858.537 687.741 815.781C751.227 774.55 813.365 733.058 867.345 691.704C895.326 670.276 921.338 648.912 944.149 628.272C976.068 599.385 1005.96 570.935 1059.88 540.861C1154.77 487.946 1253.24 467.628 1325.59 452.13C1419.24 432.065 1521.38 418.991 1643.86 362.739L1638.99 350.793L1639 350.786ZM1627.56 322.734C1509.12 378.472 1407.75 396.138 1311.99 419.951C1236.92 438.618 1139.98 463.222 1048.97 515.595C962.826 565.16 916.919 620.302 857.415 668.879C804.662 711.947 745.812 755.67 685.226 799.425C623.175 844.23 559.597 889.084 498.808 933.848C431.563 983.364 373.616 1032.37 286.686 1080.58C202.392 1127.34 112.76 1164.62 26.5019 1201.78C-80.6153 1247.92 -182.261 1294.83 -282.438 1354.64L-282.236 1355.15C-182.313 1295.36 -81.067 1248.66 25.8464 1202.85C111.609 1166.08 200.786 1129.24 284.755 1082.8C371.199 1035 428.945 986.054 497.058 936.805C558.218 892.586 622.795 848.352 685.942 804.101C747.411 761.03 807.2 717.939 860.255 675.411C887.572 653.513 913.357 631.742 936.647 610.528C968.355 581.651 999.12 553.028 1052.11 522.811C1144.23 470.274 1241.58 446.89 1315.89 429.145C1411.04 406.425 1512.65 390.046 1632.23 334.162L1627.56 322.734ZM1650.42 378.764C1526.3 435.2 1423.87 446.416 1331.06 465.028C1259.73 479.341 1160.71 497.895 1064.28 551.008C1009.83 580.998 980.426 609.37 948.389 638.257C925.844 658.595 899.701 679.726 871.368 700.883C816.738 741.673 753.302 782.22 688.796 822.374C621.554 864.235 553.365 905.896 490.327 948.404C418.852 996.6 362.143 1045.16 277.316 1091.56C194.511 1136.85 107.194 1171.89 23.3298 1207.15C-82.7433 1251.75 -182.442 1297.6 -281.366 1357.27L-281.074 1357.97C-182.418 1298.33 -83.1559 1252.72 22.6925 1208.46C106.023 1173.61 192.843 1139.06 275.315 1094.1C359.761 1048.03 416.111 999.609 488.513 951.724C552.215 909.597 621.334 868.671 689.635 827.538C754.851 788.264 819.273 748.464 874.476 708.04C903.081 687.102 929.313 666.129 951.673 646.026C983.804 617.13 1012.82 588.819 1067.69 558.882C1165.31 505.635 1264.76 488.444 1335.31 475.029C1427.45 457.514 1530.14 447.746 1655.49 391.163L1650.43 378.757L1650.42 378.764ZM1604.77 266.837C1493.94 320.786 1395.18 344.609 1298.61 373.257C1221.01 396.275 1128.58 425.103 1042.78 474.828C949.815 528.698 898.109 588.246 840.555 639.409C789.659 684.659 736.575 730.326 681.688 776.294C621.757 826.463 559.707 876.967 496.603 927.615C434.192 977.71 376.119 1025.18 286.905 1074.45C201.793 1121.44 111.474 1160.09 24.0822 1198.59C-82.1429 1245.4 -184.009 1292.87 -283.612 1351.77L-283.362 1352.39C-183.073 1292.99 -80.6947 1245.45 26.2744 1198.51C113.86 1160.08 204.538 1121.42 289.732 1074.1C378.655 1024.7 436.841 976.357 500.288 926.173C563.945 875.827 627.396 825.499 688.688 775.462C745.008 729.489 799.369 683.805 850.754 638.653C906.011 590.097 953.854 535.072 1041.08 484.046C1127.84 433.292 1221.73 404.796 1299.31 382.44C1396.37 354.472 1496.09 331.746 1608.94 277.152L1604.75 266.867L1604.77 266.837ZM1593.5 239.212C1486.22 292.237 1388.64 318.883 1291.86 349.914C1213.28 375.111 1122.88 405.86 1039.54 454.467C945.692 509.203 893.247 567.997 838.086 619.14C787.895 665.677 737.599 712.239 685.599 759.155C629.396 809.868 571.1 861.021 509.372 912.753C450.038 962.468 392.495 1010.73 304.748 1060.77C214.359 1112.32 116.579 1154.65 22.5293 1196.54C-83.2087 1243.62 -185.105 1291.3 -284.432 1349.74L-284.115 1350.51C-184.085 1291.57 -81.6652 1243.78 24.863 1196.53C112.994 1157.43 204.014 1118.1 289.627 1070.63C379.541 1020.76 438.082 973.118 499.271 922.747C562.149 870.981 622.338 819.63 680.369 768.691C733.753 721.83 785.314 675.322 836.008 628.996C892.217 577.637 944.776 518.003 1037.82 463.284C1122.04 413.755 1213.77 383.256 1292.47 358.651C1389.81 328.218 1488.3 302.537 1597.46 248.866L1593.52 239.214L1593.5 239.212ZM1661.76 406.561C1534.86 463.317 1431.91 471.262 1340.57 487.457C1270.95 499.809 1171.02 515.28 1071.93 568.691C1016.57 598.522 988.002 626.8 955.788 655.698C933.678 675.531 907.313 696.295 878.389 716.963C822.365 756.995 756.754 795.835 690.736 834.007C621.183 874.215 550.961 914.186 486.326 955.93C412.737 1003.45 356.915 1051.66 272.896 1097.35C190.899 1141.94 104.545 1175.89 21.959 1210.19C-83.6196 1254.04 -182.351 1299.38 -280.662 1358.97L-280.274 1359.93C-182.222 1300.35 -83.9319 1255.24 21.422 1211.73C103.474 1177.86 189.286 1144.43 270.962 1100.16C354.685 1054.78 410.084 1006.71 484.591 959.511C550.064 918.041 621.187 878.875 691.708 839.468C758.308 802.247 824.89 764.217 881.683 724.454C910.858 704.026 937.3 683.427 959.228 663.806C991.523 634.905 1019.73 606.658 1075.48 576.901C1175.79 523.351 1276.09 509.32 1344.98 497.829C1435.66 482.7 1538.82 476.296 1667.01 419.379L1661.78 406.562L1661.76 406.561ZM1616.14 294.708C1501.59 349.561 1401.54 370.395 1305.34 396.622C1228.91 417.459 1134.3 444.228 1045.93 495.207C958.637 545.549 911.788 600.379 855.227 648.813C803.638 692.976 747.815 737.809 690.034 782.843C626.908 832.05 561.633 881.479 497.623 930.778C432.915 980.62 375.076 1028.83 286.895 1077.62C202.194 1124.48 112.216 1162.46 25.3698 1200.3C-81.3181 1246.79 -183.069 1293.98 -282.966 1353.34L-282.75 1353.87C-182.172 1294 -79.9241 1246.77 27.5044 1200.17C114.498 1162.44 204.844 1124.47 289.588 1077.27C377.26 1028.44 435.501 979.302 501.429 929.432C561.737 883.812 623.796 838.063 684.156 792.447C743.39 747.68 800.768 703.057 853.178 659.11C911.224 610.434 958.171 555.004 1044.31 504.774C1133.72 452.644 1229.88 426.293 1306.18 406.174C1402.83 380.681 1503.86 361.112 1620.59 305.602L1616.15 294.724L1616.14 294.708ZM1672.99 434.078C1544.57 490.652 1441.98 495.56 1352.98 509.286C1284.89 519.784 1185.91 531.613 1084.27 583.897C1028.15 612.773 998.503 641.193 967.063 669.713C945.764 689.025 919.759 709.391 890.635 729.582C834.098 768.787 767.31 805.764 700.73 841.621C624.438 882.71 547.254 923.371 476.646 967.511C402.12 1014.11 348.243 1061.1 264.575 1105.81C183.609 1149.08 99.2134 1181.52 18.317 1214.72C-85.8746 1257.49 -182.909 1302.17 -279.753 1361.19L-279.216 1362.5C-182.657 1303.51 -86.0357 1259.03 17.9358 1216.6C98.294 1183.82 182.152 1151.91 262.797 1108.96C346.22 1064.53 399.625 1017.64 474.971 971.408C546.65 927.421 624.775 887.664 701.974 847.508C768.94 812.669 836.739 776.512 894.122 737.477C923.485 717.502 949.517 697.306 970.608 678.187C1002.07 649.668 1031.42 621.205 1087.95 592.429C1190.8 540.067 1290.04 529.695 1357.5 520.009C1445.86 507.309 1548.64 503.973 1678.33 447.232L1672.97 434.077L1672.99 434.078ZM307.465 969.05C521.782 842.244 582.149 730.893 645.764 634.855C711.497 535.621 772.602 430.627 973.233 300.558C1135.44 195.399 1326.16 113.409 1505.44 23.284L1503.97 19.6749C1324.48 109.625 1134.12 192.415 971.918 297.495C770.456 428.018 709.826 532.31 644.374 631.747C581.12 727.834 521.373 838.859 306.499 966.042C110.315 1082.17 -111.831 1167.42 -313.222 1279.17L-312.058 1282.02C-110.818 1170.19 111.301 1085.12 307.452 969.057L307.465 969.05ZM297.049 953.855C513.342 826.401 572.318 718.592 633.803 622.776C669.377 567.318 702.649 511.894 758.241 449.864C803.397 399.466 868.781 346.864 954.48 290.755C1119.03 183.038 1312.46 94.6405 1497.37 3.50264L1496.14 0.493101C1311.03 91.4018 1117.97 180.432 953.304 288.029C867.647 344.005 801.932 396.432 756.697 446.809C700.902 508.953 667.82 564.39 632.398 619.85C571.158 715.715 512.531 823.165 295.893 950.867C100.499 1066.05 -119.572 1151.64 -320.244 1261.95L-319.037 1264.91C-118.44 1154.46 101.629 1069.02 297.049 953.855ZM1694.88 487.805C1563.87 544.16 1462.1 543.274 1377.51 552.675C1311.04 560.056 1215.03 565.134 1108.84 614.694C1054.06 640.258 1019.09 669.687 990.238 696.802C966.681 718.941 938.747 741.228 901.974 764.612C842.287 802.546 772.832 835.449 706.416 866.529C628.544 902.979 549.176 939.175 475.006 981.936C398.274 1026.18 346.561 1072.35 266.578 1115.41C182.864 1160.48 95.6352 1192.34 12.5917 1225.67C-89.0662 1266.47 -182.986 1310.05 -277.014 1367.99C-276.641 1368.89 -276.436 1369.38 -276.023 1370.41C-182.238 1312.46 -88.7146 1269.03 12.774 1228.56C95.2458 1195.67 181.891 1164.38 265.302 1119.63C345.217 1076.75 396.377 1030.69 473.897 986.783C549.382 944.016 629.674 908.722 708.135 873.264C774.643 843.213 845.084 811.177 905.842 773.276C943.021 750.08 970.738 728.002 994.041 706.005C1022.76 678.889 1057.71 649.33 1112.79 623.891C1220.14 574.315 1316.24 570.681 1382.29 564.023C1434.59 558.749 1485.22 554.966 1542.34 545.883C1588.52 538.535 1637.57 528.339 1700.43 501.443L1694.89 487.813L1694.88 487.805ZM1389.57 574.096C1323.2 580.149 1216.1 582.231 1102.8 638.832C1046.28 667.057 1019.27 695.137 988.815 722.974C966.347 743.509 936.135 765.456 900.991 786.41C838.527 823.651 767.821 854.23 701.658 883.17C623.332 917.407 542.656 952.075 466.938 994.874C390.258 1038.22 340.275 1083.58 260.302 1125.88C177.525 1169.68 92.2259 1200.06 10.7424 1232.41C-89.772 1272.33 -182.279 1315.48 -274.98 1372.93L-273.678 1376.12C-181.212 1318.64 -89.0421 1275.6 11.3286 1235.99C92.2739 1204.05 177.001 1174.23 259.5 1130.74C339.445 1088.6 388.911 1043.3 466.205 1000.27C543.263 957.391 624.885 923.579 703.614 890.329C769.849 862.353 841.472 832.636 905.085 795.418C940.468 774.712 970.593 752.966 992.832 732.559C1023.16 704.73 1049.93 676.497 1106.86 648.276C1157.18 623.318 1205.01 611.68 1243 604.267C1299.22 593.268 1347.17 589.542 1394.47 585.7C1446.42 581.472 1496.8 578.633 1554.03 570.331C1599.37 563.758 1647.97 554.409 1711.11 527.564L1705.5 513.826C1642.85 540.545 1594.23 550.355 1548.67 557.329C1491.72 566.049 1441.43 569.383 1389.59 574.121L1389.57 574.096ZM1582.39 211.942C1394.07 306.299 1202.09 330.501 1018.93 444.568C929.62 500.19 876.518 558.796 823.707 609.78C774.301 657.482 726.693 704.755 677.39 752.431C624.194 803.861 568.992 855.825 507.842 908.948C450.516 958.76 392.709 1006.34 304.042 1056.77C213.198 1108.43 115.175 1151.4 20.6124 1193.92C-84.6224 1241.24 -186.46 1289.09 -285.515 1347.06L-285.122 1348.03C-186.262 1290.07 -84.7082 1242.37 20.4173 1195.24C114.597 1153.02 212.253 1110.41 302.839 1059C391.141 1008.88 448.812 961.353 506.722 911.661C567.96 859.111 624.112 807.532 678.188 756.45C728.234 709.176 776.577 662.289 826.06 615.144C879.464 564.264 932.228 505.652 1021.44 450.422C1206.2 336.05 1396.74 315.401 1586.05 220.936L1582.38 211.934L1582.39 211.942ZM1684.04 461.2C1554.26 517.64 1452.04 519.601 1365.31 531.053C1298.25 539.903 1200.6 548.258 1096.57 599.237C1039.89 627.027 1008.89 655.706 978.149 683.898C954.338 705.732 924.524 728.69 889.432 751.525C830.498 789.879 762.093 824.508 695.45 857.866C617.828 896.731 539.252 935.562 467.301 979.362C392.228 1025.04 340.303 1070.9 256.877 1114.7C176.938 1156.67 94.4345 1187.66 15.1476 1219.82C-87.7332 1261.57 -183.178 1305.68 -278.56 1364.12L-277.83 1365.93C-182.692 1307.47 -87.6682 1263.57 15.018 1222.16C93.7748 1190.39 175.728 1159.94 255.363 1118.29C338.6 1074.75 390.06 1028.95 465.818 983.632C538.949 939.881 618.504 901.932 696.819 864.066C763.727 831.717 833.122 797.963 893.087 759.719C928.48 737.152 958.271 714.393 981.834 692.742C1012.55 664.532 1043.32 635.797 1100.41 608.091C1205.61 557.057 1303.46 550.186 1369.99 542.082C1456.08 531.609 1558.49 531.236 1689.51 474.61L1684.03 461.184L1684.04 461.2ZM1571.07 604.241C1514.03 611.596 1464.26 613.239 1413.17 616.094C1365.88 618.739 1318.32 621.117 1262.69 630.215C1225.64 636.261 1178.72 645.644 1127.03 669.341C1028.68 714.402 1011.45 764.843 927.008 814.189C858.33 854.321 779.21 883.685 709.933 910.494C631.843 940.711 549.483 971.715 470.106 1013.86C386.774 1058.09 336.358 1105.99 250.984 1149.59C169.974 1190.96 88.2904 1218.67 9.5558 1249.35C-88.9744 1287.74 -179.036 1330.31 -269.289 1386.9L-267.154 1392.12C-171.182 1331.72 -76.4021 1288.21 27.6469 1248.43C104.087 1219.2 184.494 1191.51 263.175 1150.06C346.277 1106.28 395.768 1058.85 481.11 1015.31C561.646 974.226 643.464 944.879 721.287 915.674C789.31 890.147 868.746 861.436 936.717 821.295C1019.75 772.268 1034.92 721.878 1135.86 677.33C1187.98 654.326 1234.41 645.852 1271.17 640.314C1326.42 631.989 1373.76 630.091 1420.99 627.883C1471.64 625.517 1521.08 624.29 1577.95 617.251C1621.4 611.874 1668.64 603.896 1731.39 577.248L1725.81 563.551C1662.81 590.247 1615.11 598.569 1571.09 604.242L1571.07 604.241ZM28.9456 1260.26C104.226 1231.73 183.047 1205.23 261.021 1164.85C344.229 1121.77 392.582 1074.48 476.64 1031.66C558.188 990.117 641.148 961.703 718.455 934.174C786.178 910.048 866.231 883.481 936.908 843.997C1025.74 794.368 1033.62 747.851 1130.09 701.055C1180.3 676.697 1227.11 667.202 1262.67 661.43C1318.11 652.431 1364.65 650.838 1410.46 649.179C1461.61 647.327 1510.84 646.99 1566.27 642.002C1613.61 637.738 1667.69 631.875 1740.87 600.61L1735.35 587.086C1672.32 613.89 1625.09 621.598 1581.82 626.754C1524.78 633.55 1475.29 634.469 1424.6 636.529C1377.29 638.453 1329.88 640.042 1274.48 648.101C1237.85 653.424 1191.38 661.615 1138.98 684.665C1037.29 729.37 1023.95 779.613 940.195 828.726C871.561 868.965 791.345 897.119 723.548 922.007C645.543 950.648 563.154 979.452 481.696 1020.65C395.995 1064 346.922 1111.46 263.684 1155.2C185.156 1196.48 105.111 1223.8 28.9822 1252.78C-75.0476 1292.38 -169.6 1335.85 -265.46 1396.33C-264.463 1398.8 -263.936 1400.1 -262.82 1402.84C-167.988 1342.76 -74.3102 1299.4 28.9201 1260.27L28.9456 1260.26ZM1512.33 40.1948C1332.43 131.668 1138.57 210.382 975.328 317.029C777.7 446.136 715.577 555.217 647.686 654.415C581.302 751.414 515.379 863.759 298.146 989.534C104.525 1101.65 -110.619 1184.02 -307.173 1293.99L-306.08 1296.69C-109.699 1186.61 105.321 1104.5 298.898 992.487C515.367 867.227 582.131 754.564 649.016 657.655C717.298 558.707 780.138 448.909 976.8 320.43C1140.18 213.697 1334.36 136.027 1514.07 44.4379L1512.34 40.1877L1512.33 40.1948ZM1413.83 657.074C1367.96 658.497 1321.38 659.823 1265.81 668.629C1230.37 674.243 1183.49 683.525 1133.08 707.973C1035.86 755.11 1029.97 801.363 940.363 851.179C869.14 890.761 788.441 916.86 720.897 940.471C643.501 967.514 560.001 995.499 477.723 1037.2C393.465 1079.9 345.444 1127.28 262.093 1170.34C184.227 1210.59 105.701 1236.78 30.6896 1265.1C-72.5597 1304.07 -166.089 1347.46 -260.827 1407.62C-259.6 1410.64 -258.945 1412.23 -257.584 1415.58C-163.81 1355.79 -71.0679 1312.43 31.4741 1273.86C105.735 1245.93 183.078 1220.53 260.407 1181.14C343.93 1138.59 391.046 1091.57 473.554 1049.2C561.628 1003.98 651.618 975.295 733.518 947.377C799.516 924.883 880.637 899.181 950.695 859.455C1038.16 809.844 1042.01 763.394 1142.08 716.373C1192.87 692.51 1239.37 684.082 1274.41 678.944C1329.58 670.854 1375.94 669.936 1421.73 668.884C1472.47 667.722 1521.4 667.972 1576.78 663.436C1623.2 659.629 1676.88 654.362 1749.93 622.801L1744.52 609.539C1671.08 641.041 1616.95 646.598 1569.86 650.639C1514.29 655.409 1465.01 655.488 1413.81 657.081L1413.83 657.074ZM1571.45 185.148C1387.83 278.228 1198.04 311.803 1019.96 421.574C929.62 477.262 875.928 534.308 825.141 584.88C772.569 637.215 724.627 688.366 674.816 739.996C625.138 791.474 573.694 843.528 514.191 897.355C455.596 950.357 394.175 1000.67 298.287 1054.66C207.402 1105.84 109.944 1148.98 15.5923 1191.79C-88.1834 1238.88 -189.062 1286.56 -286.947 1343.55L-286.459 1344.75C-187.883 1287.27 -86.383 1239.41 18.1898 1192.1C112.848 1149.27 210.791 1106.01 301.804 1054.47C397.838 1000.08 458.897 949.065 518.141 895.819C577.875 842.136 630.321 790.023 681.086 738.427C728.327 690.41 774.119 642.756 823.153 594.302C874.58 543.47 928.128 485.631 1018.07 429.756C1197.86 318.041 1389.38 287.173 1574.86 193.477L1571.47 185.149L1571.45 185.148ZM1580.06 671.349C1524.57 675.717 1475.6 675.249 1424.84 676.202C1379.01 677.059 1332.63 677.76 1277.33 685.705C1242.41 690.723 1195.84 698.979 1144.91 722.936C1044.05 770.383 1042.1 816.635 954.104 866.465C883.803 906.262 801.884 931.734 736.213 953.739C654.453 981.131 563.68 1009.61 475.123 1054.98C392.522 1097.3 345.751 1144.4 262.013 1186.99C184.771 1226.26 107.643 1251.43 33.6004 1279.18C-69.0449 1317.65 -161.672 1361.07 -255.385 1420.97L-251.453 1430.61C-158.619 1371.02 -66.7632 1327.6 35.3308 1289.43C108.744 1261.98 184.71 1237.54 261.468 1199.07C345.773 1156.81 391.12 1110.39 472.06 1068.12C560.07 1022.16 651.655 993.727 732.297 967.321C798.18 945.754 879.589 921.638 951.644 882.616C1048.26 830.307 1046.1 780.921 1153.95 731.683C1205.16 708.289 1251.33 700.813 1285.92 696.212C1340.8 688.9 1386.95 688.56 1432.7 688.024C1482.98 687.439 1531.57 688.192 1586.87 683.987C1632.4 680.527 1685.72 675.706 1758.48 643.725C1756.72 639.433 1754.98 635.15 1753.24 630.851C1679.99 662.678 1626.27 667.704 1580.06 671.349ZM1589.84 691.167C1534.46 695.255 1485.84 694.332 1435.55 694.749C1389.78 695.132 1343.61 695.295 1288.64 702.496C1254.15 706.999 1207.92 714.367 1156.6 737.851C1047.86 787.643 1052.1 836.812 955.015 889.408C882.773 928.545 800.822 952.409 735.152 973.67C654.584 999.761 562.466 1027.96 474.101 1074.15C393.117 1116.49 348.204 1162.94 263.586 1205.3C186.899 1243.68 111.098 1267.91 37.836 1295.24C-64.3809 1333.37 -156.211 1376.9 -249.01 1436.61L-244.311 1448.13C-151.543 1388.18 -59.7645 1344.44 42.7569 1306.35C115.81 1279.22 191.312 1255.32 267.918 1217.06C353.244 1174.44 397.209 1128 478.272 1085.44C567.151 1038.79 660.179 1010.94 740.584 985.334C805.84 964.556 888.728 941.053 961.15 901.672C1058.98 848.472 1050.91 799.712 1161.29 748.849C1212.75 725.144 1259.11 717.944 1293.4 713.571C1348.56 706.551 1394.73 706.643 1440.53 706.51C1490.85 706.343 1539.45 707.561 1595 703.636C1639.97 700.49 1693.43 696.094 1766.46 663.285L1761.42 650.92C1688.54 683.188 1635.17 687.829 1589.86 691.168L1589.84 691.167ZM8.5106 1245.54C87.602 1214.58 169.712 1186.47 250.937 1144.85C336.255 1101.15 387.059 1053.29 470.025 1008.79C548.38 966.764 630.045 935.145 707.93 904.235C777.342 876.684 855.648 846.641 923.467 806.586C1006.87 757.329 1026.08 706.608 1123.71 661.657C1175.06 638.009 1221.93 628.287 1259.13 621.979C1314.57 612.572 1362.08 609.839 1409.26 606.86C1460.29 603.641 1510.01 601.642 1566.86 594.003C1611.07 588.062 1658.76 579.428 1721.42 552.862L1715.81 539.091C1652.94 565.771 1604.8 574.79 1560.01 581.066C1503.01 589.055 1452.97 591.495 1401.48 595.258C1354.23 598.697 1306.52 601.96 1250.71 612.172C1213.15 619.054 1165.79 629.742 1114.96 654.057C1057.9 681.335 1029.1 710.036 999.731 737.539C978.055 757.849 949.444 779.226 913.928 800.083C850.826 837.168 779.212 866.247 713.843 893.115C635.561 925.285 554.443 957.493 476.393 999.349C392.295 1044.45 340.375 1092.88 255.09 1137.21C173.208 1179.77 89.761 1208.77 9.71478 1240.24C-89.7613 1279.36 -180.962 1322.16 -272.419 1379.17C-271.787 1380.72 -271.443 1381.54 -270.73 1383.29C-180.319 1326.74 -90.0422 1284.13 8.52793 1245.54L8.5106 1245.54ZM1560.75 158.921C1380.58 251.071 1190.13 293.831 1016.57 401.346C926.287 457.269 871.248 513.52 821.833 563.978C769.266 617.665 723.796 669.44 676.816 721.591C630.01 773.546 581.998 826.003 524.129 880.837C468.74 933.331 408.978 984.104 314.216 1039C225.222 1090.57 128.356 1134.68 34.6298 1177.53C-75.9009 1228.07 -184.099 1278.4 -288.83 1339.02L-288.245 1340.48C-183.682 1279.86 -75.7006 1229.65 34.7414 1179.28C128.178 1136.66 224.764 1092.82 313.567 1041.45C408.006 986.811 467.717 936.066 523.615 883.647C581.586 829.291 630.366 777.103 677.832 725.433C725.46 673.574 771.561 622.09 824.061 568.91C873.824 518.508 928.391 462.249 1018.8 406.526C1193.51 298.841 1383.05 258.84 1563.86 166.567L1560.75 158.913L1560.75 158.921ZM1550.34 133.385C1369.19 226.627 1171.92 278.998 1000.84 388.961C913.985 444.791 858.885 500.039 811.453 549.921C759.787 604.261 717.12 656.092 673.058 708.235C592.451 803.606 504.19 922.109 307.017 1035.18C114.515 1145.57 -97.4878 1221.8 -291.161 1333.25L-290.461 1334.98C-97.1135 1223.51 114.366 1147.87 306.675 1037.73C502.028 925.853 592.333 807.122 674.149 711.97C718.778 660.066 762.013 608.473 813.584 554.591C861.266 504.765 916.012 449.453 1002.91 393.786C1174.87 283.635 1371.72 233.617 1553.17 140.348L1550.34 133.394L1550.34 133.385ZM1540.23 108.638C1362.63 200.324 1168.71 259.733 1001.45 366.305C908.9 425.278 849.425 483.271 801.003 535.619C750.244 590.477 710.149 642.276 668.713 694.336C593.713 788.595 513.647 904.823 316.493 1020.05C121.82 1133.83 -96.6444 1213.14 -294.113 1326.07L-293.299 1328.06C-100.137 1217.4 111.022 1140.2 303.166 1030.4C504.709 915.223 588.057 799.101 665.271 703.666C707.684 651.235 748.408 599.214 799.035 544.332C847.661 491.63 906.489 432.929 999.336 373.361C1167.79 265.273 1363.65 207.339 1542.78 114.91L1540.22 108.645L1540.23 108.638ZM1521.19 61.9398C1340.6 154.629 1143.5 228.445 978.746 336.755C792.247 459.344 726.544 568.891 658.108 664.583C588.658 761.684 519.312 877.071 305.593 1001.22C111.464 1113.97 -105.053 1195.56 -302.023 1306.65L-301.012 1309.14C-104.244 1197.99 112.027 1116.74 306.096 1004.11C518.795 880.68 589.311 764.966 659.402 667.996C728.385 572.565 794.915 462.348 980.362 340.534C1145.39 232.123 1342.73 159.626 1523.19 66.8644L1521.2 61.9647L1521.19 61.9398ZM1530.51 84.7794C1348.84 178.489 1148.95 246.497 982.156 356.617C800.207 476.744 731.353 590.087 659.444 685.541C588.387 779.863 513.914 893.492 311.669 1011.32C117.181 1124.63 -100.416 1205.18 -297.702 1317.25L-296.791 1319.5C-99.7793 1207.39 117.523 1127.26 311.883 1014.11C512.907 897.092 588.739 783.236 660.628 689.027C733.242 593.877 803.163 479.904 983.893 360.732C1151.11 250.473 1351.13 184.096 1532.76 90.3522L1530.49 84.7782L1530.51 84.7794Z" fill="url(#paint0_linear_23_36943)"/>
<defs>
<linearGradient id="paint0_linear_23_36943" x1="366.889" y1="1342.76" x2="585.313" y2="252.825" gradientUnits="userSpaceOnUse">
<stop stop-color="#1B5CBC" stop-opacity="0.69"/>
<stop offset="0.0001" stop-color="#180F9D"/>
<stop offset="1" stop-color="#180F9D"/>
</linearGradient>
</defs>
</svg>
