<svg width="50" height="50" viewBox="0 0 50 50" fill="none" xmlns="http://www.w3.org/2000/svg">
<path d="M10.4167 43.75C9.27084 43.75 8.28959 43.3417 7.47292 42.525C6.65625 41.7083 6.24861 40.7278 6.25 39.5833V10.4167C6.25 9.27084 6.65834 8.28959 7.475 7.47292C8.29167 6.65625 9.27223 6.24861 10.4167 6.25H39.5833C40.7292 6.25 41.7104 6.65834 42.5271 7.475C43.3438 8.29167 43.7514 9.27223 43.75 10.4167V39.5833C43.75 40.7292 43.3417 41.7104 42.525 42.5271C41.7083 43.3438 40.7278 43.7514 39.5833 43.75H10.4167ZM10.4167 39.5833H39.5833V10.4167H10.4167V39.5833Z" fill="white"/>
<path d="M27.2089 24.9999L32.3554 19.8554C32.5005 19.7102 32.6157 19.5378 32.6943 19.3482C32.7728 19.1585 32.8133 18.9552 32.8133 18.7499C32.8133 18.5446 32.7728 18.3413 32.6943 18.1516C32.6157 17.9619 32.5005 17.7896 32.3554 17.6444C32.2102 17.4992 32.0378 17.3841 31.8482 17.3055C31.6585 17.227 31.4552 17.1865 31.2499 17.1865C31.0446 17.1865 30.8413 17.227 30.6516 17.3055C30.4619 17.3841 30.2896 17.4992 30.1444 17.6444L24.9999 22.7909L19.8554 17.6444C19.5622 17.3512 19.1645 17.1865 18.7499 17.1865C18.3353 17.1865 17.9376 17.3512 17.6444 17.6444C17.3512 17.9376 17.1865 18.3353 17.1865 18.7499C17.1865 19.1645 17.3512 19.5622 17.6444 19.8554L22.7909 24.9999L17.6444 30.1444C17.4992 30.2896 17.3841 30.4619 17.3055 30.6516C17.227 30.8413 17.1865 31.0446 17.1865 31.2499C17.1865 31.4552 17.227 31.6585 17.3055 31.8482C17.3841 32.0378 17.4992 32.2102 17.6444 32.3554C17.7896 32.5005 17.9619 32.6157 18.1516 32.6943C18.3413 32.7728 18.5446 32.8133 18.7499 32.8133C18.9552 32.8133 19.1585 32.7728 19.3482 32.6943C19.5378 32.6157 19.7102 32.5005 19.8554 32.3554L24.9999 27.2089L30.1444 32.3554C30.2896 32.5005 30.4619 32.6157 30.6516 32.6943C30.8413 32.7728 31.0446 32.8133 31.2499 32.8133C31.4552 32.8133 31.6585 32.7728 31.8482 32.6943C32.0378 32.6157 32.2102 32.5005 32.3554 32.3554C32.5005 32.2102 32.6157 32.0378 32.6943 31.8482C32.7728 31.6585 32.8133 31.4552 32.8133 31.2499C32.8133 31.0446 32.7728 30.8413 32.6943 30.6516C32.6157 30.4619 32.5005 30.2896 32.3554 30.1444L27.2089 24.9999Z" fill="white"/>
</svg>
