<svg width="22" height="22" viewBox="0 0 22 22" fill="none" xmlns="http://www.w3.org/2000/svg">
<circle cx="11" cy="11" r="11" fill="white"/>
<path d="M11.6024 5C9.45122 5 8 6.29231 8 8.50769H9.69024C9.69024 7.34965 10.4756 6.59441 11.6024 6.59441C12.7634 6.59441 13.2927 7.28252 13.2927 8.13846C13.2927 8.84336 12.9 9.33007 12.422 9.81678C11.6024 10.6392 10.5439 11.3105 10.5439 12.9552V13.442H12.1659V13.1063C12.1659 11.9147 12.9512 11.4448 13.7024 10.7734C14.3683 10.1692 15 9.41399 15 8.15525C15 6.29231 13.7195 5 11.6024 5ZM12.3707 15.0028H10.339V17H12.3707V15.0028Z" fill="#450D6B"/>
</svg>
