<svg width="52" height="52" viewBox="0 0 52 52" fill="none" xmlns="http://www.w3.org/2000/svg">
<path d="M39.0002 28.1624H28.1668V38.9958C28.1668 39.5704 27.9386 40.1215 27.5322 40.5278C27.1259 40.9342 26.5748 41.1624 26.0002 41.1624C25.4255 41.1624 24.8744 40.9342 24.4681 40.5278C24.0618 40.1215 23.8335 39.5704 23.8335 38.9958V28.1624H13.0002C12.4255 28.1624 11.8744 27.9342 11.4681 27.5278C11.0618 27.1215 10.8335 26.5704 10.8335 25.9958C10.8335 25.4211 11.0618 24.87 11.4681 24.4637C11.8744 24.0574 12.4255 23.8291 13.0002 23.8291H23.8335V12.9958C23.8335 12.4211 24.0618 11.87 24.4681 11.4637C24.8744 11.0574 25.4255 10.8291 26.0002 10.8291C26.5748 10.8291 27.1259 11.0574 27.5322 11.4637C27.9386 11.87 28.1668 12.4211 28.1668 12.9958V23.8291H39.0002C39.5748 23.8291 40.1259 24.0574 40.5322 24.4637C40.9386 24.87 41.1668 25.4211 41.1668 25.9958C41.1668 26.5704 40.9386 27.1215 40.5322 27.5278C40.1259 27.9342 39.5748 28.1624 39.0002 28.1624Z" fill="#33CAFF"/>
</svg>
