<svg xmlns="http://www.w3.org/2000/svg" width="1440" height="1471" viewBox="0 0 1440 1471" fill="none">
<g style="mix-blend-mode:lighten">
<path d="M-228.134 1122.28C-107.612 1064.57 -5.8991 1048.76 88.0838 1026.35C161.02 1008.96 258.747 986.042 351.762 932.048C404.893 901.207 434.761 872.278 466.212 842.973C488.946 821.796 514.578 799.924 541.988 777.927C594.995 735.397 655.577 692.43 717.688 649.58C781.825 605.34 847.221 561.154 908.41 516.823C977.13 467.031 1033.87 417.472 1119.03 369.081C1201.95 321.964 1289.95 284.622 1374.51 247.297C1480.49 200.518 1580.55 152.805 1679.29 91.7549L1679.05 91.1988C1580.58 152.207 1480.95 199.681 1375.18 246.137C1291.12 283.057 1203.61 319.908 1121.01 366.715C1036.27 414.73 979.81 464.184 910.187 513.695C848.485 557.574 782.134 601.069 716.869 644.696C653.936 686.766 592.355 729.079 538.928 771.146C511.235 792.944 485.508 814.652 462.974 835.592C431.441 864.9 401.928 893.745 348.413 924.533C254.237 978.703 156.048 1000.33 83.9035 1016.78C-9.46973 1038.09 -111.429 1052.52 -233.151 1110.39L-228.121 1122.27L-228.134 1122.28ZM-216.324 1150.18C-98.6321 1092.87 2.49741 1073.86 97.9302 1048.78C172.749 1029.12 269.349 1003.23 359.661 949.652C445.137 898.947 490.307 843.2 549.161 793.838C601.337 750.073 659.602 705.572 719.601 661.017C781.052 615.391 844.029 569.698 904.217 524.13C970.799 473.725 1028.09 423.957 1114.37 374.59C1198.04 326.724 1287.17 288.253 1372.92 249.949C1479.42 202.391 1580.43 154.139 1679.81 93.0054L1679.6 92.4988C1580.48 153.607 1479.86 201.641 1373.57 248.874C1288.3 286.775 1199.62 324.798 1116.27 372.347C1030.47 421.293 973.382 471.001 905.929 521.15C845.361 566.178 781.377 611.265 718.823 656.35C657.931 700.234 598.72 744.115 546.234 787.344C519.21 809.602 493.717 831.714 470.71 853.235C439.389 882.531 409.006 911.56 356.426 942.478C265.005 996.233 167.972 1020.91 93.9109 1039.64C-0.92973 1063.62 -102.313 1081.35 -221.14 1138.81L-216.324 1150.18ZM-239.918 1094.46C-116.565 1036.38 -14.2919 1023.8 78.2611 1003.96C149.398 988.701 248.164 968.833 343.88 914.445C397.928 883.735 426.951 854.975 458.601 825.665C480.874 805.029 506.735 783.553 534.784 762.022C588.868 720.51 651.759 679.124 715.727 638.117C782.407 595.367 850.037 552.805 912.504 509.463C983.334 460.322 1039.39 411.013 1123.6 363.496C1205.79 317.106 1292.64 280.913 1376.02 244.538C1481.5 198.529 1580.58 151.36 1678.7 90.3889L1678.4 89.6936C1580.54 150.632 1481.9 197.561 1376.64 243.223C1293.78 279.172 1207.43 314.872 1125.56 360.929C1041.74 408.108 986.034 457.277 914.275 506.119C851.138 549.088 782.568 590.928 714.82 632.964C650.131 673.101 586.243 713.753 531.582 754.906C503.256 776.222 477.305 797.542 455.215 817.94C423.47 847.26 394.829 875.954 340.368 906.617C243.459 961.155 144.245 979.665 73.879 994.016C-18.017 1012.75 -120.569 1023.88 -245.158 1082.13L-239.931 1094.46L-239.918 1094.46ZM-192.789 1205.77C-82.6886 1150.35 15.7453 1125.22 111.929 1095.29C189.213 1071.25 281.254 1041.19 366.387 990.333C458.63 935.234 509.541 875.004 566.41 823.081C616.701 777.16 669.174 730.791 723.446 684.099C782.706 633.138 844.079 581.814 906.505 530.333C968.246 479.414 1025.68 431.179 1114.24 380.731C1198.72 332.614 1288.51 292.767 1375.39 253.103C1480.98 204.889 1582.21 156.074 1681.02 95.859L1680.76 95.238C1581.27 155.966 1479.53 204.857 1373.2 253.214C1286.13 292.803 1195.97 332.67 1111.41 381.118C1023.15 431.694 965.615 480.802 902.84 531.824C839.857 583.011 777.08 634.177 716.457 685.023C660.753 731.74 607.003 778.142 556.222 823.973C501.615 873.257 454.507 928.913 367.965 981.093C281.886 1032.99 188.386 1062.74 111.106 1086.12C14.4318 1115.37 -84.982 1139.42 -197.101 1195.51L-192.773 1205.74L-192.789 1205.77ZM-181.157 1233.24C-74.5852 1178.8 22.6315 1150.86 118.985 1118.54C197.224 1092.31 287.211 1060.36 369.896 1010.65C463.012 954.672 514.672 895.186 569.148 843.315C618.717 796.116 668.39 748.89 719.762 701.288C775.288 649.834 832.899 597.911 893.935 545.363C952.604 494.865 1009.5 445.842 1096.57 394.642C1186.27 341.894 1283.48 298.271 1376.97 255.139C1482.07 206.658 1583.32 157.629 1681.87 97.878L1681.54 97.1095C1582.3 157.373 1480.52 206.517 1374.63 255.178C1287.03 295.44 1196.54 335.984 1111.56 384.584C1022.32 435.641 964.417 484.058 903.903 535.237C841.717 587.833 782.215 639.978 724.866 691.683C672.109 739.25 621.169 786.437 571.095 833.433C515.574 885.534 463.811 945.86 371.504 1001.81C287.945 1052.45 196.629 1084.17 118.267 1109.82C21.337 1141.54 -76.8006 1168.52 -185.239 1223.64L-181.174 1233.24L-181.157 1233.24ZM-251.633 1066.81C-125.49 1008.38 -22.6604 999.066 68.4562 981.659C137.912 968.384 237.628 951.587 335.996 896.865C390.952 866.301 419.144 837.647 450.971 808.323C472.816 788.199 498.904 767.087 527.551 746.036C583.038 705.264 648.127 665.556 713.632 626.51C782.646 585.382 852.331 544.483 916.405 501.884C989.357 453.388 1044.53 404.445 1127.94 357.642C1209.34 311.967 1295.23 276.872 1377.36 241.481C1482.34 196.236 1580.46 149.589 1677.97 88.696L1677.57 87.7396C1580.32 148.615 1482.64 195.031 1377.87 239.929C1296.28 274.893 1210.92 309.459 1129.84 354.808C1046.72 401.3 991.966 450.098 918.093 498.28C853.177 540.616 782.579 580.723 712.588 621.063C646.488 659.165 580.417 698.076 524.157 738.59C495.255 759.403 469.09 780.352 447.425 800.262C415.516 829.589 387.69 858.208 332.339 888.702C232.749 943.58 132.642 958.942 63.9118 971.347C-26.5635 987.679 -129.625 995.452 -257.046 1054.07L-251.65 1066.81L-251.633 1066.81ZM-204.528 1178.05C-90.7218 1121.68 9.04233 1099.52 104.894 1072.02C181.041 1050.17 275.281 1022.15 362.968 969.997C449.585 918.501 495.702 863.054 551.616 813.873C602.613 769.028 657.836 723.458 715.014 677.661C777.481 627.62 842.093 577.329 905.443 527.184C969.484 476.487 1026.68 427.512 1114.2 377.559C1198.27 329.579 1287.74 290.409 1374.08 251.418C1480.14 203.517 1581.25 154.975 1680.35 94.297L1680.13 93.7656C1580.36 154.966 1478.74 203.552 1371.94 251.572C1285.46 290.451 1195.63 329.625 1111.52 377.946C1024.5 427.935 966.916 477.839 901.656 528.581C841.958 574.998 780.513 621.566 720.763 667.98C662.129 713.529 605.349 758.91 553.527 803.549C496.133 852.992 449.925 909.041 364.463 960.409C275.749 1013.72 179.95 1041.35 103.926 1062.48C7.62007 1089.25 -93.137 1110.16 -209.122 1167.22L-204.538 1178.03L-204.528 1178.05ZM-263.22 1039.45C-135.569 981.174 -33.0526 974.904 55.7555 959.997C123.702 948.595 222.518 935.454 323.451 881.824C379.19 852.206 408.453 823.395 439.511 794.46C460.552 774.866 486.284 754.157 515.138 733.581C571.149 693.629 637.44 655.768 703.538 619.031C779.278 576.932 855.915 535.25 925.931 490.176C999.832 442.594 1053.08 394.887 1136.15 349.071C1216.53 304.729 1300.49 271.173 1380.94 236.904C1484.55 192.748 1580.98 146.791 1677.04 86.4881L1676.48 85.1799C1580.71 145.451 1484.69 191.215 1381.29 235.015C1301.38 268.866 1217.95 301.885 1137.88 345.901C1055.06 391.434 1002.28 439.024 927.554 486.257C856.465 531.191 778.875 571.983 702.216 613.16C635.719 648.885 568.406 685.939 511.546 725.733C482.451 746.096 456.689 766.636 435.855 786.033C404.779 814.967 375.808 843.818 319.662 873.342C217.519 927.065 118.42 938.754 51.0931 949.335C-37.0846 963.207 -139.818 967.907 -268.741 1026.37L-263.203 1039.45L-263.22 1039.45ZM1095.08 486.391C882.462 616.031 823.579 728.174 761.245 825.048C696.835 925.146 637.13 1030.94 438.243 1163.66C277.446 1270.97 87.8298 1355.48 -90.2395 1447.98L-88.7211 1451.57C89.5652 1359.24 278.806 1273.93 439.599 1166.71C639.31 1033.52 698.55 928.435 762.676 828.137C824.649 731.219 882.916 619.41 1096.08 489.385C1290.71 370.666 1511.7 282.467 1711.59 168.055L1710.39 165.218C1510.65 279.718 1289.68 367.727 1095.09 486.383L1095.08 486.391ZM1105.69 501.446C891.112 631.76 833.572 740.343 773.365 836.968C738.531 892.892 705.998 948.753 651.234 1011.52C606.752 1062.51 542.071 1115.98 457.125 1173.22C294.02 1283.11 101.782 1374.07 -81.9025 1467.65L-80.6277 1470.65C103.255 1377.29 295.113 1285.7 458.337 1175.93C543.243 1118.82 608.257 1065.52 652.819 1014.55C707.784 951.671 740.126 895.799 774.809 839.874C834.771 743.204 891.966 634.986 1106.89 504.418C1300.74 386.655 1519.65 298.149 1718.84 185.176L1717.59 182.233C1518.48 295.338 1299.57 383.7 1105.69 501.446ZM-285.828 986.016C-155.581 927.926 -53.7994 927.461 30.6585 916.938C97.0189 908.675 192.958 902.322 298.477 851.356C352.908 825.068 387.488 795.176 415.979 767.681C439.24 745.231 466.876 722.575 503.335 698.705C562.513 659.981 631.524 626.159 697.522 594.2C774.903 556.719 853.784 519.473 927.379 475.731C1003.52 430.476 1054.61 383.616 1134.02 339.499C1217.12 293.319 1303.92 260.31 1386.52 225.88C1487.62 183.735 1580.96 138.908 1674.21 79.7284C1673.82 78.8287 1673.61 78.3458 1673.18 77.3162C1580.18 136.51 1487.24 181.174 1386.3 222.993C1304.27 256.975 1218.05 289.409 1135.24 335.262C1055.9 379.199 1005.35 425.938 928.424 470.869C853.513 514.635 773.697 550.991 695.714 587.488C629.611 618.42 559.601 651.388 499.352 690.093C462.484 713.781 435.063 736.225 412.054 758.529C383.697 786.024 349.142 816.044 294.406 842.212C187.727 893.21 91.6775 898.119 25.7209 905.654C-26.4998 911.622 -77.0717 916.076 -134.072 925.918C-180.144 933.878 -229.059 944.724 -291.561 972.452L-285.832 986.008L-285.828 986.016ZM18.3083 895.679C84.5954 888.745 191.655 885.241 304.193 827.141C360.337 798.167 386.973 769.731 417.054 741.492C439.247 720.661 469.165 698.314 504.028 676.895C565.992 638.828 636.286 607.313 702.058 577.497C779.923 542.223 860.131 506.487 935.275 462.687C1011.37 418.324 1060.75 372.304 1140.15 328.946C1222.34 284.056 1307.23 252.547 1388.28 219.11C1488.25 177.86 1580.18 133.483 1672.11 74.8133L1670.76 71.6408C1579.07 130.34 1487.48 174.599 1387.64 215.537C1307.13 248.557 1222.8 279.498 1140.89 324.075C1061.51 367.275 1012.65 413.228 935.936 457.277C859.454 501.18 778.288 536.072 700.007 570.365C634.15 599.218 562.928 629.884 499.815 667.943C464.71 689.117 434.876 711.26 412.91 731.961C382.958 760.19 356.56 788.776 300.013 817.751C250.027 843.375 202.357 855.647 164.472 863.564C108.403 875.309 60.5046 879.671 13.2576 884.141C-38.6282 889.058 -88.9722 892.566 -146.087 901.626C-191.334 908.802 -239.8 918.794 -302.581 946.475L-296.791 960.138C-234.505 932.59 -186.02 922.135 -140.552 914.556C-83.7274 905.081 -33.4829 901.08 18.294 895.654L18.3083 895.679ZM-169.678 1260.36C17.3708 1163.51 209.011 1136.76 390.636 1020.27C479.202 963.47 531.521 904.165 583.651 852.483C632.418 804.13 679.395 756.229 728.06 707.902C780.569 655.77 835.076 603.078 895.515 549.148C952.174 498.579 1009.35 450.233 1097.33 398.636C1187.48 345.77 1284.93 301.505 1378.92 257.73C1483.51 209.013 1584.71 159.821 1682.98 100.543L1682.58 99.5784C1584.5 158.843 1483.59 207.883 1379.1 256.406C1285.48 299.875 1188.4 343.776 1098.51 396.385C1010.88 447.674 953.844 495.964 896.599 546.42C836.065 599.778 780.602 652.099 727.209 703.894C677.795 751.829 630.079 799.354 581.226 847.151C528.503 898.736 476.521 958.044 388.048 1014.45C204.827 1131.27 14.5729 1154.45 -173.466 1251.42L-169.673 1260.37L-169.678 1260.36ZM-274.63 1012.47C-145.618 954.316 -43.4313 950.998 43.1404 938.396C110.078 928.655 207.612 919.005 310.948 866.649C367.258 838.108 397.876 809.021 428.238 780.423C451.757 758.275 481.263 734.923 516.049 711.624C574.469 672.491 642.407 636.957 708.602 602.716C785.701 562.824 863.755 522.953 935.117 478.202C1009.58 431.529 1060.89 384.984 1143.73 340.083C1223.1 297.05 1305.19 264.971 1384.04 231.756C1486.36 188.648 1581.21 143.274 1675.8 83.5695L1675.05 81.7713C1580.7 141.489 1486.26 186.654 1384.14 229.422C1305.81 262.235 1224.27 293.769 1145.19 336.474C1062.54 381.114 1011.69 427.589 936.544 473.912C864 518.631 784.956 557.633 707.151 596.535C640.679 629.77 571.738 664.443 512.286 703.479C477.195 726.514 447.71 749.667 424.436 771.629C394.101 800.244 363.716 829.385 306.99 857.847C202.483 910.273 104.733 918.443 38.3191 927.43C-47.6285 939.045 -150.024 940.777 -280.282 999.138L-274.621 1012.49L-274.63 1012.47ZM-163.578 867.946C-106.638 859.834 -56.8941 857.53 -5.84125 853.997C41.4078 850.725 88.9269 847.716 144.433 837.88C181.398 831.342 228.19 821.337 279.567 796.956C377.311 750.592 393.864 699.927 477.645 649.464C545.783 608.424 624.507 578.012 693.421 550.286C771.103 519.035 853.044 486.94 931.855 443.749C1014.59 398.41 1064.37 349.849 1149.16 305.119C1229.61 262.673 1310.92 233.881 1389.24 202.162C1487.25 162.465 1576.74 118.704 1666.23 60.9143L1664.03 55.7301C1568.87 117.4 1474.67 162.163 1371.16 203.321C1295.12 233.561 1215.08 262.319 1136.96 304.806C1054.45 349.685 1005.59 397.77 920.832 442.438C840.849 484.59 759.428 515.021 682 545.256C614.322 571.685 535.274 601.448 467.842 642.488C385.464 692.613 370.97 743.2 270.627 789.084C218.82 812.779 172.508 821.868 135.82 827.894C80.6888 836.952 33.3783 839.478 -13.82 842.314C-64.4351 845.352 -113.85 847.235 -170.62 855.029C-213.998 860.982 -261.129 869.586 -323.522 897.065L-317.756 910.687C-255.122 883.157 -207.538 874.202 -163.595 867.945L-163.578 867.946ZM1369.7 191.51C1294.81 221.031 1216.35 248.574 1138.92 289.989C1056.29 334.175 1008.57 382.099 925.085 426.031C844.096 468.655 761.521 498.168 684.586 526.721C617.189 551.744 537.496 579.371 467.349 619.79C379.188 670.595 371.926 717.212 276.078 765.285C226.199 790.308 179.521 800.423 144.036 806.667C88.7237 816.402 42.207 818.612 -3.56956 820.879C-54.6966 823.41 -103.92 824.402 -159.278 830.125C-206.551 835.017 -260.555 841.598 -333.311 873.831L-327.61 887.281C-264.939 859.642 -217.82 851.308 -174.617 845.577C-117.674 838.025 -68.1993 836.449 -17.5422 833.716C29.736 831.164 77.1232 828.946 132.407 820.152C168.967 814.342 215.324 805.535 267.406 781.792C368.495 735.741 381.169 685.325 464.265 635.104C532.359 593.957 612.194 564.74 679.655 538.954C757.272 509.28 839.272 479.385 920.176 437.108C1005.29 392.627 1053.73 344.519 1136.38 299.671C1214.36 257.36 1294.03 228.973 1369.77 198.988C1473.26 158.005 1567.23 113.285 1662.28 51.5372C1661.25 49.0848 1660.7 47.7929 1659.55 45.0703C1565.52 106.403 1472.43 151.004 1369.73 191.496L1369.7 191.51ZM-97.3478 1431.16C81.3176 1337.31 274.115 1256.03 435.93 1147.22C631.827 1015.5 692.496 905.606 759.064 805.515C824.153 707.643 888.579 594.433 1104.12 465.784C1296.24 351.112 1510.27 265.89 1705.35 153.313L1704.22 150.632C1509.31 263.306 1295.4 348.271 1103.33 462.842C888.544 590.965 823.283 704.505 757.69 802.293C690.728 902.139 629.352 1012.76 434.414 1143.84C272.465 1252.73 79.3355 1332.98 -99.1463 1426.94L-97.3605 1431.17L-97.3478 1431.16ZM-7.04456 813.03C38.8007 810.998 85.3529 809.053 140.809 799.51C176.169 793.426 222.919 783.523 272.996 758.408C369.584 709.984 374.86 663.656 463.799 612.655C534.491 572.131 614.836 544.963 682.06 520.457C759.09 492.388 842.211 463.297 923.929 420.506C1007.61 376.689 1055 328.682 1137.77 284.512C1215.1 243.235 1293.27 216.003 1367.9 186.691C1470.62 146.352 1563.56 101.728 1657.49 40.3175C1656.23 37.309 1655.55 35.7305 1654.15 32.395C1561.17 93.4269 1469.02 138.015 1367 177.938C1293.11 206.851 1216.11 233.286 1139.31 273.697C1056.36 317.354 1009.88 364.995 927.938 408.453C840.473 454.84 750.871 484.716 669.349 513.719C603.655 537.087 522.882 563.865 453.359 604.517C366.556 655.285 363.33 701.782 263.887 750.128C213.424 774.663 167.036 783.708 132.072 789.31C77.0069 798.132 30.6714 799.666 -15.1023 801.326C-65.8239 803.161 -114.749 803.562 -170.066 808.832C-216.431 813.255 -270.043 819.235 -342.662 851.763L-337.078 864.951C-264.058 832.477 -210.011 826.202 -162.978 821.536C-107.479 816.028 -58.2071 815.295 -7.0319 813.023L-7.04456 813.03ZM-158.389 1287.01C23.9814 1191.5 213.303 1155.4 389.91 1043.28C479.507 986.397 532.436 928.642 582.548 877.401C634.42 824.372 681.678 772.589 730.799 720.302C779.789 668.169 830.538 615.436 889.32 560.824C947.207 507.049 1007.95 455.922 1103.12 400.664C1193.31 348.287 1290.19 303.856 1383.97 259.797C1487.11 211.328 1587.34 162.314 1684.46 104.034L1683.96 102.841C1586.16 161.626 1485.3 210.821 1381.36 259.518C1287.28 303.599 1189.92 348.156 1099.6 400.902C1004.3 456.559 943.923 508.385 885.391 562.412C826.376 616.884 774.626 669.689 724.551 721.954C677.951 770.595 632.796 818.852 584.41 867.953C533.662 919.463 480.887 978.008 391.698 1035.07C213.401 1149.17 22.3089 1182.57 -161.912 1278.72L-158.406 1287.01L-158.389 1287.01ZM-173.451 800.964C-118.022 795.859 -69.0544 795.676 -18.3133 794.05C27.5053 792.584 73.8651 791.267 129.063 782.588C163.913 777.107 210.366 768.234 260.976 743.603C361.193 694.82 362.529 648.547 449.856 597.553C519.623 556.825 601.196 530.268 666.57 507.393C747.959 478.918 838.346 449.237 926.293 402.693C1008.32 359.28 1054.47 311.564 1137.63 267.871C1214.34 227.574 1291.13 201.384 1364.8 172.65C1466.92 132.821 1558.97 88.1787 1651.88 27.0396L1647.82 17.4489C1555.78 78.269 1464.51 122.906 1362.93 162.43C1289.89 190.847 1214.26 216.294 1138.02 255.778C1054.28 299.153 1009.55 346.172 929.181 389.516C841.789 436.642 750.589 466.286 670.305 493.761C604.714 516.2 523.633 541.395 452.102 581.37C356.192 634.958 359.008 684.311 251.818 734.977C200.919 759.049 154.854 767.137 120.334 772.197C65.5566 780.236 19.4073 781.189 -26.3285 782.333C-76.5952 783.586 -125.192 783.478 -180.43 788.417C-225.909 792.481 -279.159 798.01 -351.487 830.954C-349.678 835.222 -347.873 839.482 -346.076 843.757C-273.259 810.96 -219.608 805.222 -173.451 800.964ZM-183.496 781.277C-128.173 776.454 -79.5457 776.731 -29.2658 775.647C16.491 774.656 62.6582 773.88 117.532 765.95C151.958 760.989 198.085 753.007 249.083 728.845C357.158 677.613 352.261 628.504 448.641 574.624C520.357 534.531 601.983 509.581 667.365 487.45C747.58 460.291 839.316 430.876 927.059 383.514C1007.47 340.1 1051.77 293.057 1135.81 249.58C1211.99 210.18 1287.46 184.947 1360.35 156.65C1462.05 117.164 1553.3 72.4223 1645.29 11.4804L1640.44 0.0254972C1548.48 61.2008 1457.29 106.153 1355.28 145.606C1282.6 173.707 1207.42 198.605 1131.33 237.881C1046.57 281.623 1003.23 328.647 922.739 372.28C834.487 420.101 741.837 449.186 661.779 475.859C596.805 497.502 514.237 522.104 442.344 562.442C345.225 616.937 353.945 665.586 244.246 717.91C193.108 742.296 146.851 750.111 112.617 754.939C57.5565 762.691 11.3933 763.212 -34.407 763.952C-84.713 764.788 -133.325 764.216 -188.825 768.877C-233.749 772.621 -287.142 777.726 -359.73 811.502L-354.527 823.799C-282.08 790.566 -228.777 785.216 -183.513 781.276L-183.496 781.277ZM1390.33 205.951C1311.66 237.963 1229.93 267.163 1149.27 309.852C1064.53 354.681 1014.37 403.213 932.004 448.812C854.213 491.875 772.975 524.576 695.507 556.518C626.467 584.988 548.567 616.068 481.286 657.02C398.54 707.38 380.01 758.351 282.987 804.595C231.95 828.923 185.219 839.266 148.103 846.068C92.791 856.209 45.3252 859.573 -1.81543 863.179C-52.7928 867.075 -102.484 869.734 -159.227 878.128C-203.35 884.654 -250.922 893.922 -313.229 921.317L-307.437 935.012C-244.928 907.5 -196.909 897.842 -152.21 890.972C-95.3163 882.227 -45.3107 879.123 6.1232 874.676C53.3177 870.611 100.981 866.715 156.649 855.762C194.12 848.381 241.334 837.066 291.838 812.078C348.526 784.045 376.943 754.964 405.946 727.073C427.35 706.477 455.675 684.722 490.911 663.396C553.515 625.476 624.736 595.449 689.742 567.715C767.59 534.508 848.273 501.226 925.761 458.337C1009.25 412.122 1060.53 363.004 1145.21 317.55C1226.52 273.906 1309.58 243.797 1389.2 211.271C1488.15 170.835 1578.77 126.826 1669.46 68.6067C1668.81 67.0695 1668.46 66.2514 1667.72 64.5099C1578.07 122.259 1488.36 166.056 1390.32 205.95L1390.33 205.951ZM-147.341 1313.09C31.5876 1218.56 221.454 1173.27 393.576 1063.46C483.105 1006.34 537.392 949.366 586.133 898.256C637.982 843.877 682.761 791.502 729.044 738.732C775.156 686.16 822.467 633.07 879.603 577.473C934.29 524.248 993.372 472.686 1087.4 416.535C1175.7 363.789 1271.97 318.399 1365.12 274.305C1474.97 222.301 1582.49 170.543 1686.41 108.533L1685.8 107.079C1582.05 169.089 1474.75 220.724 1364.98 272.557C1272.12 316.419 1176.13 361.529 1088.01 414.077C994.309 469.966 935.277 521.499 880.079 574.656C822.836 629.777 774.753 682.608 727.977 734.904C681.042 787.391 635.628 839.483 583.839 893.355C534.749 944.413 480.935 1001.39 391.274 1058.31C218.013 1168.31 29.0199 1210.82 -150.556 1305.49L-147.336 1313.1L-147.341 1313.09ZM-136.59 1338.49C43.2995 1242.85 239.863 1187.86 409.463 1075.64C495.571 1018.66 549.933 962.682 596.698 912.175C647.639 857.154 689.613 804.76 732.979 752.037C812.313 655.604 898.992 535.939 1094.65 420.256C1285.67 307.328 1496.64 228.286 1688.81 114.272L1688.09 112.555C1496.24 226.579 1285.78 305.027 1094.95 417.702C901.104 532.167 812.384 652.087 731.839 748.317C687.903 800.809 645.357 852.971 594.505 907.534C547.49 957.988 493.482 1014.02 407.331 1070.84C236.853 1183.26 40.6773 1235.89 -139.513 1331.56L-136.594 1338.48L-136.59 1338.49ZM-126.156 1363.1C50.2158 1269.06 243.328 1207.08 409.16 1098.3C500.915 1038.1 559.614 979.323 607.338 926.336C657.363 870.81 696.767 818.482 737.509 765.878C811.25 670.63 889.765 553.35 1085.37 435.516C1278.52 319.159 1495.91 236.958 1691.86 121.411L1691.02 119.432C1499.34 232.652 1289.23 312.651 1098.56 424.992C898.565 542.831 816.766 660.05 740.826 756.502C699.112 809.492 659.083 862.049 609.189 917.599C561.268 970.941 503.225 1030.42 411.176 1091.21C244.176 1201.53 49.0991 1262.06 -128.784 1356.86L-126.144 1363.09L-126.156 1363.1ZM-106.493 1409.54C72.8444 1314.46 268.951 1238.03 432.251 1127.54C617.105 1002.49 681.348 892.079 748.507 795.487C816.661 697.472 884.469 581.174 1096.52 454.202C1289.14 338.878 1504.55 254.419 1700.03 140.731L1698.98 138.254C1503.71 252.001 1288.54 336.122 1095.98 451.313C884.938 577.559 815.965 694.199 747.168 792.091C679.458 888.429 614.398 999.52 430.585 1123.79C267.009 1234.38 70.647 1309.49 -108.566 1404.64L-106.508 1409.51L-106.493 1409.54ZM-116.116 1386.82C64.2894 1290.71 263.26 1220.05 428.577 1107.73C608.915 985.196 676.258 870.949 746.894 774.548C816.692 679.291 889.649 564.683 1090.31 444.181C1283.28 328.302 1499.79 244.862 1695.57 130.184L1694.63 127.944C1499.12 242.661 1282.9 325.67 1090.06 441.388C890.608 561.07 816.294 675.923 745.663 771.078C674.319 867.184 605.918 982.076 426.786 1103.64C261.047 1216.11 61.9258 1285.13 -118.444 1381.28L-116.099 1386.82L-116.116 1386.82Z" fill="url(#paint0_linear_23_36944)" fill-opacity="0.4"/>
</g>
<defs>
<linearGradient id="paint0_linear_23_36944" x1="1030.7" y1="113.503" x2="826.763" y2="1206.24" gradientUnits="userSpaceOnUse">
<stop stop-color="#1B5CBC" stop-opacity="0.69"/>
<stop offset="0.0001" stop-color="#0E479B"/>
<stop offset="1" stop-color="#44249C"/>
</linearGradient>
</defs>
</svg>