<svg xmlns="http://www.w3.org/2000/svg" width="1440" height="1471" viewBox="0 0 1440 1471" fill="none">
<g style="mix-blend-mode:lighten">
<path d="M-184.134 1122.28C-63.612 1064.57 38.1009 1048.76 132.084 1026.35C205.02 1008.96 302.747 986.043 395.762 932.048C448.893 901.208 478.761 872.278 510.212 842.974C532.946 821.797 558.578 799.924 585.988 777.927C638.995 735.397 699.577 692.43 761.688 649.58C825.825 605.341 891.221 561.154 952.41 516.824C1021.13 467.031 1077.87 417.472 1163.03 369.081C1245.95 321.965 1333.95 284.622 1418.51 247.297C1524.49 200.518 1624.55 152.805 1723.29 91.7552L1723.05 91.199C1624.58 152.207 1524.95 199.681 1419.18 246.137C1335.12 283.057 1247.61 319.908 1165.01 366.715C1080.27 414.73 1023.81 464.185 954.187 513.695C892.485 557.574 826.134 601.07 760.869 644.696C697.936 686.766 636.355 729.079 582.928 771.146C555.235 792.945 529.508 814.652 506.974 835.592C475.441 864.901 445.928 893.746 392.413 924.533C298.237 978.703 200.048 1000.33 127.903 1016.78C34.5303 1038.09 -67.4287 1052.52 -189.151 1110.39L-184.121 1122.27L-184.134 1122.28ZM-172.324 1150.18C-54.6321 1092.87 46.4974 1073.86 141.93 1048.78C216.749 1029.12 313.349 1003.23 403.661 949.652C489.137 898.947 534.307 843.2 593.161 793.838C645.337 750.073 703.602 705.573 763.601 661.017C825.052 615.392 888.029 569.698 948.217 524.131C1014.8 473.725 1072.09 423.957 1158.37 374.59C1242.04 326.724 1331.17 288.254 1416.92 249.949C1523.42 202.392 1624.43 154.14 1723.81 93.0056L1723.6 92.499C1624.48 153.607 1523.86 201.641 1417.57 248.875C1332.3 286.775 1243.62 324.799 1160.27 372.347C1074.47 421.293 1017.38 471.001 949.929 521.151C889.361 566.178 825.377 611.265 762.823 656.351C701.931 700.234 642.72 744.115 590.234 787.344C563.21 809.603 537.717 831.714 514.71 853.235C483.389 882.531 453.006 911.56 400.425 942.478C309.005 996.234 211.972 1020.91 137.911 1039.64C43.0703 1063.62 -58.3129 1081.35 -177.14 1138.81L-172.324 1150.18ZM-195.918 1094.46C-72.5648 1036.38 29.7081 1023.8 122.261 1003.96C193.398 988.701 292.164 968.834 387.88 914.445C441.928 883.735 470.951 854.975 502.601 825.665C524.874 805.029 550.735 783.553 578.784 762.022C632.868 720.51 695.759 679.124 759.727 638.117C826.407 595.367 894.037 552.805 956.504 509.463C1027.33 460.322 1083.39 411.013 1167.6 363.496C1249.79 317.106 1336.64 280.913 1420.02 244.538C1525.5 198.529 1624.58 151.361 1722.7 90.3891L1722.4 89.6939C1624.54 150.632 1525.9 197.561 1420.64 243.223C1337.78 279.172 1251.43 314.872 1169.56 360.929C1085.74 408.108 1030.03 457.277 958.275 506.119C895.138 549.088 826.568 590.928 758.82 632.964C694.13 673.101 630.243 713.754 575.582 754.906C547.256 776.223 521.305 797.542 499.215 817.94C467.47 847.261 438.829 875.954 384.368 906.617C287.459 961.156 188.245 979.665 117.879 994.016C25.983 1012.75 -76.5693 1023.88 -201.158 1082.13L-195.931 1094.46L-195.918 1094.46ZM-148.789 1205.77C-38.6886 1150.35 59.7453 1125.22 155.929 1095.29C233.213 1071.25 325.254 1041.19 410.387 990.333C502.63 935.234 553.541 875.004 610.41 823.081C660.701 777.16 713.174 730.791 767.446 684.099C826.706 633.138 888.079 581.814 950.505 530.334C1012.25 479.414 1069.68 431.179 1158.24 380.731C1242.72 332.614 1332.51 292.768 1419.39 253.103C1524.98 204.889 1626.21 156.074 1725.02 95.8592L1724.76 95.2382C1625.27 155.967 1523.53 204.857 1417.2 253.214C1330.13 292.804 1239.97 332.671 1155.41 381.118C1067.15 431.694 1009.62 480.802 946.84 531.824C883.856 583.011 821.08 634.178 760.457 685.023C704.753 731.74 651.003 778.142 600.222 823.973C545.615 873.258 498.507 928.914 411.965 981.093C325.886 1032.99 232.386 1062.74 155.106 1086.12C58.4318 1115.37 -40.982 1139.42 -153.101 1195.51L-148.773 1205.74L-148.789 1205.77ZM-137.157 1233.24C-30.5852 1178.8 66.6315 1150.86 162.985 1118.54C241.224 1092.31 331.211 1060.36 413.896 1010.65C507.012 954.672 558.672 895.187 613.148 843.315C662.717 796.116 712.39 748.891 763.762 701.288C819.288 649.834 876.899 597.911 937.935 545.363C996.604 494.865 1053.5 445.842 1140.57 394.642C1230.27 341.894 1327.48 298.272 1420.97 255.139C1526.07 206.658 1627.32 157.629 1725.87 97.8783L1725.54 97.1098C1626.3 157.373 1524.52 206.517 1418.63 255.178C1331.03 295.441 1240.54 335.984 1155.56 384.585C1066.32 435.641 1008.42 484.058 947.903 535.237C885.717 587.833 826.215 639.979 768.866 691.684C716.109 739.25 665.169 786.438 615.095 833.433C559.574 885.534 507.811 945.86 415.504 1001.81C331.945 1052.45 240.629 1084.17 162.267 1109.82C65.337 1141.54 -32.8006 1168.52 -141.239 1223.64L-137.174 1233.24L-137.157 1233.24ZM-207.633 1066.81C-81.4901 1008.38 21.3396 999.066 112.456 981.659C181.912 968.384 281.628 951.587 379.996 896.866C434.952 866.302 463.144 837.647 494.971 808.323C516.816 788.199 542.904 767.087 571.551 746.036C627.038 705.264 692.127 665.556 757.632 626.511C826.646 585.383 896.331 544.483 960.405 501.885C1033.36 453.388 1088.53 404.445 1171.94 357.642C1253.34 311.967 1339.23 276.872 1421.36 241.482C1526.34 196.236 1624.46 149.59 1721.97 88.6963L1721.57 87.7398C1624.32 148.616 1526.64 195.031 1421.87 239.929C1340.28 274.893 1254.92 309.459 1173.84 354.808C1090.72 401.3 1035.97 450.098 962.093 498.28C897.177 540.617 826.579 580.723 756.588 621.063C690.488 659.165 624.417 698.077 568.157 738.59C539.255 759.403 513.09 780.352 491.425 800.262C459.516 829.59 431.69 858.208 376.339 888.703C276.749 943.58 176.642 958.942 107.912 971.347C17.4365 987.679 -85.6255 995.452 -213.046 1054.07L-207.65 1066.81L-207.633 1066.81ZM-160.528 1178.05C-46.7218 1121.68 53.0423 1099.52 148.894 1072.02C225.041 1050.17 319.281 1022.15 406.968 969.997C493.585 918.501 539.702 863.054 595.616 813.873C646.613 769.028 701.836 723.458 759.014 677.661C821.481 627.62 886.093 577.329 949.443 527.185C1013.48 476.488 1070.68 427.512 1158.2 377.559C1242.27 329.58 1331.74 290.409 1418.08 251.418C1524.14 203.517 1625.25 154.975 1724.35 94.2973L1724.13 93.7659C1624.36 154.966 1522.74 203.552 1415.94 251.572C1329.46 290.451 1239.63 329.625 1155.52 377.946C1068.5 427.935 1010.92 477.839 945.656 528.581C885.958 574.998 824.513 621.566 764.763 667.98C706.129 713.53 649.349 758.91 597.527 803.549C540.133 852.992 493.925 909.041 408.463 960.41C319.749 1013.72 223.95 1041.35 147.926 1062.48C51.6201 1089.25 -49.137 1110.16 -165.122 1167.22L-160.538 1178.03L-160.528 1178.05ZM-219.22 1039.45C-91.5694 981.174 10.9474 974.904 99.7555 959.997C167.702 948.596 266.518 935.454 367.451 881.824C423.19 852.206 452.453 823.395 483.511 794.46C504.552 774.866 530.284 754.158 559.138 733.581C615.149 693.629 681.44 655.768 747.538 619.031C823.278 576.932 899.915 535.25 969.931 490.176C1043.83 442.594 1097.08 394.887 1180.15 349.072C1260.53 304.73 1344.49 271.173 1424.94 236.904C1528.55 192.749 1624.98 146.792 1721.04 86.4884L1720.48 85.1802C1624.71 145.451 1528.69 191.215 1425.29 235.015C1345.38 268.866 1261.95 301.885 1181.88 345.901C1099.06 391.434 1046.28 439.024 971.554 486.257C900.465 531.192 822.875 571.983 746.216 613.161C679.719 648.885 612.406 685.939 555.546 725.733C526.451 746.097 500.689 766.636 479.855 786.033C448.779 814.967 419.808 843.818 363.662 873.343C261.519 927.065 162.42 938.754 95.0931 949.335C6.91537 963.207 -95.818 967.908 -224.741 1026.37L-219.203 1039.45L-219.22 1039.45ZM1139.08 486.391C926.462 616.032 867.579 728.174 805.245 825.048C740.835 925.146 681.13 1030.94 482.243 1163.66C321.446 1270.97 131.83 1355.48 -46.2395 1447.98L-44.7211 1451.57C133.565 1359.24 322.806 1273.93 483.599 1166.71C683.31 1033.52 742.55 928.435 806.676 828.138C868.649 731.219 926.916 619.411 1140.08 489.385C1334.71 370.667 1555.7 282.467 1755.59 168.056L1754.39 165.218C1554.65 279.718 1333.68 367.727 1139.09 486.384L1139.08 486.391ZM1149.69 501.446C935.112 631.761 877.572 740.343 817.365 836.968C782.531 892.893 749.998 948.754 695.234 1011.52C650.752 1062.51 586.071 1115.98 501.125 1173.22C338.02 1283.11 145.782 1374.07 -37.9025 1467.65L-36.6277 1470.65C147.255 1377.29 339.113 1285.7 502.337 1175.93C587.243 1118.82 652.257 1065.52 696.819 1014.55C751.784 951.671 784.126 895.8 818.809 839.874C878.771 743.204 935.966 634.986 1150.89 504.418C1344.74 386.655 1563.65 298.149 1762.84 185.177L1761.59 182.233C1562.48 295.338 1343.57 383.7 1149.69 501.446ZM-241.828 986.017C-111.581 927.926 -9.79942 927.461 74.6585 916.938C141.019 908.675 236.958 902.322 342.477 851.357C396.908 825.068 431.488 795.177 459.979 767.681C483.24 745.231 510.876 722.575 547.335 698.705C606.513 659.981 675.524 626.16 741.522 594.2C818.903 556.72 897.784 519.473 971.379 475.731C1047.52 430.476 1098.61 383.616 1178.02 339.499C1261.12 293.319 1347.92 260.31 1430.52 225.88C1531.62 183.735 1624.96 138.909 1718.21 79.7286C1717.82 78.829 1717.61 78.3461 1717.18 77.3164C1624.18 136.51 1531.24 181.174 1430.3 222.993C1348.27 256.976 1262.05 289.409 1179.24 335.263C1099.9 379.199 1049.35 425.938 972.424 470.87C897.513 514.635 817.697 550.991 739.714 587.488C673.611 618.42 603.601 651.388 543.352 690.093C506.484 713.781 479.063 736.225 456.054 758.529C427.697 786.024 393.142 816.044 338.406 842.213C231.727 893.21 135.677 898.119 69.7209 905.654C17.5001 911.622 -33.0716 916.077 -90.0723 925.918C-136.144 933.878 -185.059 944.724 -247.561 972.453L-241.832 986.008L-241.828 986.017ZM62.3083 895.679C128.595 888.745 235.655 885.241 348.193 827.141C404.337 798.168 430.973 769.731 461.054 741.493C483.247 720.661 513.165 698.314 548.028 676.896C609.992 638.829 680.286 607.313 746.058 577.497C823.923 542.223 904.131 506.487 979.275 462.687C1055.37 418.324 1104.75 372.304 1184.15 328.946C1266.34 284.057 1351.23 252.547 1432.28 219.11C1532.25 177.86 1624.18 133.483 1716.11 74.8136L1714.76 71.6411C1623.07 130.34 1531.48 174.6 1431.64 215.537C1351.13 248.557 1266.8 279.498 1184.89 324.076C1105.51 367.275 1056.65 413.228 979.936 457.277C903.454 501.18 822.288 536.072 744.007 570.365C678.15 599.218 606.928 629.884 543.815 667.943C508.71 689.117 478.876 711.261 456.91 731.961C426.958 760.191 400.56 788.776 344.013 817.751C294.027 843.375 246.357 855.647 208.472 863.564C152.403 875.309 104.505 879.671 57.2577 884.141C5.37178 889.058 -44.9722 892.566 -102.087 901.627C-147.334 908.802 -195.8 918.795 -258.581 946.476L-252.791 960.138C-190.505 932.59 -142.02 922.135 -96.5522 914.557C-39.7274 905.081 10.5171 901.08 62.294 895.654L62.3083 895.679ZM-125.678 1260.36C61.3708 1163.51 253.011 1136.76 434.636 1020.27C523.202 963.47 575.521 904.165 627.651 852.484C676.419 804.13 723.395 756.229 772.06 707.902C824.569 655.771 879.076 603.078 939.515 549.148C996.174 498.579 1053.35 450.233 1141.33 398.637C1231.48 345.77 1328.93 301.506 1422.92 257.73C1527.51 209.014 1628.71 159.821 1726.98 100.543L1726.58 99.5786C1628.5 158.844 1527.59 207.884 1423.1 256.406C1329.48 299.875 1232.4 343.776 1142.51 396.386C1054.88 447.675 997.844 495.964 940.599 546.421C880.065 599.779 824.602 652.099 771.209 703.895C721.795 751.829 674.079 799.354 625.226 847.151C572.503 898.736 520.521 958.044 432.048 1014.45C248.827 1131.27 58.5729 1154.45 -129.466 1251.42L-125.673 1260.37L-125.678 1260.36ZM-230.63 1012.47C-101.618 954.316 0.568702 950.999 87.1405 938.396C154.078 928.656 251.612 919.005 354.948 866.65C411.258 838.109 441.876 809.021 472.238 780.423C495.757 758.275 525.263 734.923 560.049 711.624C618.469 672.491 686.408 636.957 752.602 602.716C829.701 562.825 907.755 522.953 979.117 478.202C1053.58 431.529 1104.89 384.984 1187.73 340.083C1267.1 297.051 1349.19 264.972 1428.04 231.757C1530.36 188.648 1625.21 143.274 1719.8 83.5697L1719.05 81.7715C1624.7 141.49 1530.26 186.654 1428.14 229.422C1349.81 262.235 1268.27 293.769 1189.19 336.474C1106.54 381.115 1055.69 427.589 980.543 473.912C908 518.631 828.956 557.633 751.151 596.536C684.679 629.771 615.738 664.443 556.286 703.479C521.195 726.514 491.71 749.667 468.436 771.629C438.101 800.245 407.716 829.385 350.99 857.847C246.483 910.274 148.733 918.443 82.3191 927.43C-3.62846 939.045 -106.024 940.778 -236.282 999.139L-230.621 1012.49L-230.63 1012.47ZM-119.578 867.946C-62.6383 859.835 -12.8941 857.531 38.1587 853.997C85.4078 850.725 132.927 847.716 188.433 837.88C225.398 831.342 272.19 821.337 323.567 796.956C421.311 750.593 437.864 699.928 521.645 649.465C589.783 608.424 668.507 578.012 737.421 550.286C815.103 519.035 897.044 486.94 975.855 443.749C1058.59 398.411 1108.37 349.849 1193.16 305.119C1273.61 262.673 1354.92 233.881 1433.24 202.162C1531.25 162.465 1620.74 118.705 1710.23 60.9146L1708.03 55.7303C1612.87 117.4 1518.67 162.163 1415.16 203.321C1339.12 233.561 1259.08 262.32 1180.96 304.806C1098.45 349.685 1049.59 397.77 964.833 442.438C884.849 484.591 803.428 515.021 726 545.256C658.322 571.685 579.274 601.448 511.842 642.488C429.464 692.613 414.97 743.2 314.627 789.085C262.82 812.779 216.508 821.868 179.82 827.895C124.689 836.953 77.3783 839.478 30.18 842.314C-20.4351 845.352 -69.8504 847.235 -126.62 855.029C-169.998 860.982 -217.129 869.587 -279.522 897.066L-273.756 910.687C-211.122 883.158 -163.538 874.202 -119.595 867.945L-119.578 867.946ZM1413.7 191.511C1338.81 221.031 1260.35 248.575 1182.92 289.989C1100.29 334.175 1052.57 382.1 969.085 426.031C888.096 468.655 805.521 498.168 728.586 526.721C661.189 551.744 581.496 579.372 511.349 619.79C423.188 670.595 415.926 717.212 320.078 765.285C270.199 790.308 223.521 800.423 188.036 806.667C132.724 816.402 86.207 818.612 40.4305 820.88C-10.6966 823.411 -59.9203 824.402 -115.278 830.125C-162.551 835.017 -216.555 841.598 -289.311 873.831L-283.61 887.282C-220.939 859.643 -173.82 851.309 -130.617 845.578C-73.6741 838.025 -24.1994 836.449 26.4578 833.716C73.736 831.165 121.123 828.946 176.407 820.152C212.967 814.343 259.324 805.535 311.406 781.792C412.495 735.741 425.169 685.325 508.265 635.104C576.359 593.957 656.194 564.74 723.655 538.954C801.272 509.281 883.272 479.385 964.176 437.108C1049.29 392.628 1097.73 344.519 1180.38 299.671C1258.36 257.36 1338.03 228.974 1413.77 198.988C1517.26 158.005 1611.23 113.285 1706.28 51.5374C1705.25 49.085 1704.7 47.7932 1703.55 45.0706C1609.52 106.404 1516.43 151.004 1413.73 191.496L1413.7 191.511ZM-53.3478 1431.16C125.318 1337.31 318.115 1256.03 479.93 1147.22C675.827 1015.5 736.496 905.606 803.064 805.516C868.153 707.643 932.579 594.433 1148.12 465.784C1340.24 351.112 1554.27 265.89 1749.35 153.314L1748.22 150.632C1553.31 263.306 1339.4 348.271 1147.33 462.842C932.544 590.966 867.283 704.505 801.69 802.294C734.728 902.139 673.352 1012.76 478.414 1143.84C316.465 1252.73 123.336 1332.98 -55.1463 1426.94L-53.3605 1431.17L-53.3478 1431.16ZM36.9554 813.03C82.8007 810.998 129.353 809.053 184.809 799.51C220.169 793.427 266.919 783.523 316.996 758.408C413.584 709.984 418.86 663.656 507.799 612.655C578.491 572.131 658.836 544.963 726.06 520.457C803.09 492.388 886.211 463.297 967.929 420.506C1051.61 376.689 1099 328.682 1181.77 284.512C1259.1 243.235 1337.27 216.003 1411.9 186.692C1514.62 146.352 1607.56 101.728 1701.49 40.3178C1700.23 37.3093 1699.55 35.7308 1698.15 32.3953C1605.17 93.4272 1513.02 138.015 1411 177.938C1337.11 206.851 1260.11 233.286 1183.31 273.697C1100.36 317.355 1053.88 364.995 971.938 408.453C884.473 454.84 794.871 484.716 713.349 513.72C647.655 537.088 566.882 563.865 497.359 604.518C410.556 655.285 407.33 701.782 307.887 750.128C257.424 774.663 211.036 783.708 176.072 789.31C121.007 798.132 74.6714 799.666 28.8977 801.326C-21.8239 803.161 -70.7493 803.562 -126.066 808.832C-172.431 813.255 -226.043 819.235 -298.662 851.763L-293.078 864.952C-220.058 832.477 -166.011 826.202 -118.978 821.537C-63.4791 816.029 -14.2071 815.296 36.9681 813.023L36.9554 813.03ZM-114.389 1287.01C67.9814 1191.5 257.303 1155.41 433.91 1043.28C523.507 986.397 576.436 928.643 626.548 877.401C678.42 824.372 725.678 772.589 774.799 720.303C823.789 668.169 874.538 615.437 933.32 560.824C991.207 507.049 1051.95 455.922 1147.12 400.664C1237.31 348.287 1334.19 303.856 1427.97 259.797C1531.11 211.328 1631.34 162.314 1728.46 104.035L1727.96 102.841C1630.16 161.626 1529.3 210.821 1425.36 259.518C1331.28 303.6 1233.92 348.156 1143.6 400.902C1048.3 456.559 987.923 508.385 929.391 562.412C870.376 616.884 818.626 669.689 768.551 721.955C721.951 770.595 676.796 818.852 628.41 867.953C577.662 919.463 524.887 978.009 435.698 1035.07C257.401 1149.17 66.3089 1182.57 -117.912 1278.72L-114.406 1287.01L-114.389 1287.01ZM-129.451 800.964C-74.0216 795.859 -25.0544 795.676 25.6867 794.05C71.5053 792.584 117.865 791.267 173.064 782.589C207.913 777.108 254.366 768.234 304.976 743.603C405.193 694.821 406.529 648.547 493.856 597.553C563.623 556.826 645.196 530.268 710.57 507.394C791.959 478.918 882.346 449.237 970.293 402.693C1052.32 359.28 1098.47 311.564 1181.63 267.871C1258.34 227.575 1335.13 201.384 1408.8 172.65C1510.92 132.821 1602.97 88.1789 1695.88 27.0397L1691.82 17.4491C1599.78 78.2693 1508.51 122.906 1406.93 162.43C1333.89 190.847 1258.26 216.294 1182.02 255.778C1098.28 299.153 1053.55 346.172 973.181 389.517C885.789 436.643 794.59 466.286 714.305 493.761C648.714 516.2 567.633 541.395 496.102 581.371C400.192 634.958 403.008 684.311 295.818 734.977C244.919 759.049 198.854 767.138 164.334 772.197C109.557 780.237 63.4073 781.19 17.6715 782.333C-32.5952 783.586 -81.192 783.478 -136.43 788.417C-181.909 792.482 -235.159 798.01 -307.487 830.954C-305.678 835.222 -303.873 839.482 -302.076 843.758C-229.259 810.96 -175.608 805.222 -129.451 800.964ZM-139.496 781.277C-84.1731 776.454 -35.5457 776.732 14.7342 775.647C60.491 774.657 106.658 773.88 161.532 765.95C195.958 760.989 242.085 753.007 293.083 728.845C401.158 677.613 396.261 628.505 492.641 574.624C564.357 534.531 645.983 509.582 711.365 487.45C791.58 460.291 883.316 430.876 971.059 383.514C1051.47 340.1 1095.77 293.057 1179.81 249.58C1255.99 210.18 1331.46 184.947 1404.35 156.65C1506.05 117.165 1597.3 72.4226 1689.29 11.4806L1684.44 0.0257209C1592.48 61.2011 1501.29 106.154 1399.28 145.606C1326.6 173.707 1251.42 198.605 1175.33 237.882C1090.57 281.623 1047.23 328.647 966.739 372.281C878.487 420.102 785.837 449.186 705.779 475.859C640.805 497.502 558.237 522.104 486.344 562.442C389.225 616.937 397.945 665.586 288.246 717.91C237.108 742.296 190.851 750.111 156.617 754.939C101.557 762.691 55.3933 763.212 9.59301 763.953C-40.713 764.788 -89.3254 764.216 -144.825 768.878C-189.749 772.621 -243.142 777.726 -315.73 811.503L-310.527 823.799C-238.08 790.567 -184.777 785.217 -139.513 781.276L-139.496 781.277ZM1434.33 205.952C1355.66 237.963 1273.93 267.163 1193.27 309.852C1108.53 354.681 1058.37 403.214 976.004 448.812C898.213 491.875 816.975 524.576 739.507 556.518C670.467 584.988 592.567 616.068 525.286 657.02C442.54 707.38 424.01 758.351 326.987 804.595C275.95 828.923 229.219 839.267 192.103 846.068C136.791 856.21 89.3252 859.574 42.1846 863.179C-8.79284 867.076 -58.4838 869.734 -115.227 878.128C-159.35 884.655 -206.922 893.922 -269.229 921.318L-263.437 935.012C-200.928 907.5 -152.909 897.842 -108.21 890.972C-51.3163 882.227 -1.31068 879.123 50.1232 874.676C97.3177 870.611 144.981 866.715 200.649 855.762C238.12 848.382 285.334 837.066 335.838 812.078C392.526 784.045 420.943 754.964 449.946 727.073C471.35 706.478 499.675 684.722 534.911 663.396C597.515 625.476 668.736 595.449 733.742 567.715C811.59 534.508 892.273 501.226 969.761 458.337C1053.25 412.122 1104.53 363.005 1189.21 317.55C1270.52 273.906 1353.58 243.797 1433.2 211.271C1532.15 170.835 1622.77 126.826 1713.46 68.6069C1712.81 67.0697 1712.46 66.2516 1711.72 64.5101C1622.07 122.26 1532.36 166.056 1434.32 205.951L1434.33 205.952ZM-103.341 1313.09C75.5876 1218.56 265.454 1173.27 437.576 1063.46C527.105 1006.34 581.392 949.366 630.133 898.257C681.982 843.877 726.761 791.502 773.044 738.732C819.156 686.16 866.467 633.07 923.603 577.473C978.29 524.248 1037.37 472.686 1131.4 416.535C1219.7 363.79 1315.97 318.399 1409.12 274.305C1518.97 222.301 1626.49 170.543 1730.41 108.534L1729.8 107.079C1626.05 169.09 1518.75 220.724 1408.98 272.557C1316.12 316.419 1220.13 361.529 1132.01 414.077C1038.31 469.966 979.277 521.499 924.08 574.656C866.836 629.777 818.753 682.608 771.977 734.904C725.042 787.391 679.628 839.483 627.839 893.355C578.749 944.413 524.935 1001.39 435.274 1058.31C262.013 1168.31 73.0199 1210.82 -106.556 1305.49L-103.336 1313.1L-103.341 1313.09ZM-92.5896 1338.49C87.2995 1242.85 283.863 1187.86 453.463 1075.64C539.571 1018.66 593.933 962.683 640.698 912.175C691.639 857.154 733.613 804.76 776.978 752.037C856.313 655.605 942.992 535.94 1138.65 420.257C1329.67 307.328 1540.64 228.286 1732.81 114.272L1732.09 112.555C1540.24 226.58 1329.78 305.027 1138.95 417.702C945.104 532.167 856.384 652.087 775.839 748.317C731.903 800.809 689.357 852.972 638.505 907.534C591.49 957.988 537.482 1014.02 451.331 1070.84C280.853 1183.26 84.6773 1235.89 -95.5135 1331.56L-92.5944 1338.48L-92.5896 1338.49ZM-82.1565 1363.1C94.2158 1269.06 287.328 1207.08 453.16 1098.3C544.915 1038.1 603.614 979.323 651.338 926.336C701.363 870.81 740.767 818.482 781.509 765.878C855.25 670.63 933.765 553.35 1129.37 435.516C1322.52 319.16 1539.91 236.958 1735.86 121.411L1735.02 119.433C1543.34 232.652 1333.23 312.651 1142.56 424.992C942.565 542.832 860.766 660.051 784.826 756.502C743.112 809.492 703.083 862.049 653.189 917.599C605.268 970.941 547.225 1030.42 455.176 1091.21C288.176 1201.53 93.0991 1262.06 -84.7844 1356.86L-82.1439 1363.09L-82.1565 1363.1ZM-62.4934 1409.54C116.844 1314.46 312.951 1238.03 476.251 1127.54C661.105 1002.49 725.348 892.079 792.507 795.487C860.661 697.472 928.469 581.174 1140.52 454.202C1333.14 338.878 1548.55 254.42 1744.03 140.731L1742.98 138.254C1547.71 252.002 1332.54 336.122 1139.98 451.313C928.938 577.559 859.965 694.2 791.168 792.091C723.458 888.43 658.398 999.521 474.585 1123.79C311.009 1234.38 114.647 1309.49 -64.5658 1404.64L-62.5077 1409.51L-62.4934 1409.54ZM-72.1164 1386.82C108.289 1290.71 307.26 1220.05 472.577 1107.73C652.915 985.196 720.258 870.949 790.894 774.548C860.692 679.291 933.649 564.683 1134.31 444.181C1327.28 328.302 1543.79 244.862 1739.57 130.184L1738.63 127.944C1543.12 242.661 1326.9 325.67 1134.06 441.388C934.608 561.07 860.294 675.923 789.663 771.079C718.319 867.185 649.918 982.076 470.786 1103.64C305.047 1216.11 105.926 1285.13 -74.4435 1381.28L-72.099 1386.82L-72.1164 1386.82Z" fill="url(#paint0_linear_23_36944)" fill-opacity="0.4"/>
</g>
<defs>
<linearGradient id="paint0_linear_23_36944" x1="1074.7" y1="113.504" x2="870.763" y2="1206.24" gradientUnits="userSpaceOnUse">
<stop stop-color="#1B5CBC" stop-opacity="0.69"/>
<stop offset="0.0001" stop-color="#0E479B"/>
<stop offset="1" stop-color="#44249C"/>
</linearGradient>
</defs>
</svg>