<svg width="28" height="25" viewBox="0 0 28 25" fill="white" xmlns="http://www.w3.org/2000/svg">
<path d="M27.3878 4.15802C27.3488 4.06282 27.2828 3.98147 27.1981 3.92426C27.1133 3.86706 27.0138 3.83658 26.9119 3.83668H22.6935C22.2133 2.90304 21.4911 2.11918 20.604 1.56915C19.717 1.01912 18.6988 0.723655 17.6584 0.71444C16.9221 0.703747 16.1911 0.842752 15.5089 1.12321C14.8267 1.40367 14.2071 1.81987 13.6869 2.34711C13.1488 2.88013 12.7217 3.51678 12.4308 4.21949C12.1399 4.92219 11.991 5.67672 11.9931 6.43855V7.8904C6.37927 6.66882 1.70429 1.95813 1.65413 1.9061C1.58523 1.83578 1.49794 1.7868 1.40249 1.76491C1.30704 1.74302 1.20739 1.74912 1.11525 1.78251C1.02291 1.81612 0.942006 1.87574 0.882074 1.95434C0.822142 2.03295 0.785686 2.12725 0.777007 2.22613C0.236844 8.29109 1.96922 12.3357 3.51769 14.6618C4.35946 15.9527 5.41443 17.0876 6.63649 18.0169C4.61988 20.6825 1.04709 22.0667 1.00979 22.081C0.936462 22.1083 0.870235 22.1521 0.816137 22.2091C0.762038 22.2661 0.721488 22.3348 0.697564 22.4101C0.67364 22.4853 0.666971 22.5651 0.678061 22.6433C0.689152 22.7215 0.717712 22.7962 0.761573 22.8616C0.796298 22.9136 1.1204 23.3819 1.98852 23.819C3.08428 24.3706 4.54657 24.6516 6.33426 24.6516C15.2199 24.6516 22.633 17.6838 23.2967 8.75032L27.2759 4.72522C27.3479 4.65248 27.397 4.55976 27.4169 4.45879C27.4368 4.35783 27.4267 4.25315 27.3878 4.15802ZM22.4324 8.15189C22.3439 8.24165 22.2909 8.361 22.2832 8.48753C21.7482 16.9683 14.7428 23.6109 6.33426 23.6109C4.03856 23.6109 2.78075 23.1048 2.15442 22.7172C3.48811 22.0901 6.19922 20.5914 7.79141 18.1756C7.83012 18.1165 7.85648 18.05 7.86887 17.9802C7.88125 17.9104 7.8794 17.8387 7.86343 17.7697C7.84795 17.7003 7.81833 17.635 7.77648 17.5779C7.73462 17.5208 7.68145 17.4731 7.62036 17.438C7.60364 17.4276 5.89827 16.3972 4.33823 14.036C2.99039 11.9948 1.49722 8.53436 1.72872 3.40087C3.42252 4.91256 7.57792 8.21433 12.4227 9.03392C12.497 9.0465 12.5731 9.04242 12.6457 9.02197C12.7183 9.00151 12.7855 8.96518 12.8427 8.91554C12.8998 8.86591 12.9455 8.80418 12.9765 8.73471C13.0075 8.66525 13.023 8.58975 13.022 8.51355V6.43855C13.021 5.81462 13.1432 5.19677 13.3815 4.62128C13.6198 4.04579 13.9694 3.52427 14.4097 3.08735C14.8348 2.65759 15.3408 2.3183 15.8976 2.08951C16.4545 1.86071 17.051 1.74704 17.652 1.75519C19.4782 1.77861 21.1875 2.90782 21.9038 4.56651C21.9435 4.65794 22.0085 4.73587 22.0908 4.791C22.1731 4.84613 22.2694 4.87614 22.3681 4.87743H25.6695L22.4324 8.15189Z" fill="white"/>
</svg>
